<?xml version="1.0" encoding="utf-8"?>
<!-- Generator: Adobe Illustrator 27.1.1, SVG Export Plug-In . SVG Version: 6.00 Build 0)  -->
<svg version="1.1" id="Layer_1" xmlns="http://www.w3.org/2000/svg" xmlns:xlink="http://www.w3.org/1999/xlink" x="0px" y="0px"
	 viewBox="0 0 864 504" style="enable-background:new 0 0 864 504;" xml:space="preserve">
<style type="text/css">
	.st0{fill:#010101;}
	.st1{fill:#020202;}
	.st2{stroke:#FFFFFF;stroke-miterlimit:10;}
</style>
<path class="st0" d="M761.4,184.14c-1.68,2.09-3.28,1.86-4.83-0.16c-0.8-0.5-1.63-1.01-1.31-2.15c0.29-1.01,1.19-0.98,2-1.04
	c0.81-0.06,1.64-0.05,2.39-0.42c1.23-0.81,1.63-2,1.58-3.4c-0.21-1.38-0.84-1.67-2.22-1.22c-3.56,1.16-3.59,1.09-5.23-2.28
	c-0.28-0.57-0.49-1.18-1.16-1.43c-0.52-0.08-0.97,0.02-1.31,0.46c-0.15,0.28-0.26,0.58-0.36,0.87c-0.41,1.17,0.06,3.19-2.08,2.83
	c-1.89-0.32-1.35-2.12-1.4-3.4c-0.14-3.37,0.13-6.75-0.17-10.11c-0.12-0.55-0.33-1.05-0.76-1.44c-0.94-0.51-1.86-0.49-2.74,0.16
	c-0.48,0.63-0.59,1.38-0.7,2.14c-0.12,3.58,0.07,7.15-0.1,10.72c-0.05,0.97-0.24,1.97-1.54,1.97c-1.29,0-1.46-0.99-1.57-1.96
	c-0.11-0.94,0-1.89-0.08-2.84c-0.17-2.05,0.57-4.24-0.96-6.07c-0.83-0.38-1.22,0.4-1.8,0.67c-1.57,1.82-0.68,4.02-0.95,6.04
	c-0.2,1.46,0.71,3.55-1.3,4.1c-2.44,0.66-1.71-2.09-2.66-3.1c-0.82-0.67-1.52-0.21-2.22,0.25c-0.94,0.86-0.52,3.36-1.83,2.97
	c-2.63-0.79-5.04-0.01-7.54,0c-0.98,0.01-1.6-0.93-2.03-1.83c-0.4-0.84-0.52-1.86-1.44-2.39c-1.81-0.12-1.53,1.12-1.44,2.23
	c0.02,1,0.35,2.14-1.28,2.22c-1.24,0.06-1.95-0.4-2.08-1.67c-0.07-0.71-0.17-1.43-0.71-1.98c-0.84-0.31-1.52,0.02-2.14,0.56
	c-0.88,0.93-0.34,3.54-2.15,2.94c-2.26-0.74-4.15-0.41-6.28,0.07c-1.22,0.27-2.16-0.69-2.64-1.89c-0.44-1.09-0.72-2.22-0.66-3.41
	c0.03-0.42,0.14-0.81,0.25-1.21c0.43-1.15,1-2.21,1.9-3.06c0.79-0.88,1.79-1.49,2.78-2.08c1.98-1.32,3.38-2.85,1.93-5.4
	c-0.6-0.41-1.25-0.48-1.94-0.31c-0.48,0.16-0.85,0.46-1.11,0.89c-0.37,1.28-0.94,2.23-2.55,1.96c-1.69-0.28-1.08-1.37-0.92-2.33
	c0.81-3.33,3.35-3.75,6.2-3.68c0.71,0,1.4,0.12,1.97,0.59c1,0.81,1.54,1.9,1.93,3.1c0.37,1.16,0.55,2.47,1.94,2.96
	c0.75,0.1,1.41-0.03,1.84-0.73c0.84-2.33,0.28-4.75,0.46-7.13c0.3-1.29-0.65-3.48,1.57-3.46c2.35,0.02,1.65,2.26,1.7,3.69
	c0.12,2.83,0.03,5.66,0.02,8.5c0.04,1.04,0.04,2.08,0,3.12c0.13,1.53-0.28,3.16,0.91,4.48c2.4-0.23,2-2.96,3.53-3.97
	c0.8-0.98,1.85-1.64,2.91-2.28c3.18-2.6,3.36-3.92,0.77-5.68c-1.09,0.07-1.62,0.86-2.16,1.66c-0.67,1-1.65,1.49-2.7,0.89
	c-1.24-0.7-0.59-1.87-0.25-2.82c0.97-2.75,2.71-3.34,7.45-2.62c0.92,0.46,1.59,1.17,2.11,2.04c0.71,1.26,0.85,2.64,0.84,4.05
	c0.14,2.34-0.62,4.79,0.81,6.99"/>
<path class="st0" d="M751.64,161.71c0.49,0.21,0.96,0.19,1.42-0.09c0.44-0.51,0.59-1.13,0.64-1.79c0.32-1.23-0.69-2.83,1.02-3.69
	c3.19-0.42,2.28,1.9,2.38,3.55c0.24,3.34-0.36,6.71,0.3,10.04c0.14,0.37,0.36,0.7,0.66,0.96c0.98,0.49,1.92,0.49,2.76-0.31
	c1.25-2.7,0.48-5.56,0.63-8.35c0.03-1.05-0.08-2.09-0.03-3.13c0.12-2.82,0.92-3.34,3.48-2.22"/>
<path class="st0" d="M766.95,156.5c4.11-3.71,9.18-4.62,14.55-4.63c2.56-0.63,5.21,0.16,7.78-0.45c5.63-0.22,11.25-0.62,16.33-3.32
	c2.15-1.14,4.44-2.48,3.83-6.21c-0.7,3.02-2.31,4.29-4.81,4.48c-2.61,0.3-5.22,0.39-7.82-0.05c-4.75-0.34-9.39-1.31-13.97-2.55
	c-4.96,0.46-9.86-1.33-14.9-0.04c-7.66,1.95-13.92,4.57-20.24,10.7l-10.08,8.36c-2.08,1.73-5.25,0.4-5.48-2.29
	c0,0-0.66-2.52,1.73-5.26c4.69-5.5,10.51-9.61,16.68-13.35c-4.5,0.39-8.88,1.33-13.34,1.08c-3.71-0.21-7.4-0.61-10.56-2.87
	c-1.25-0.9-2.38-2.07-2.11-3.66c0.25-1.47,1.67-2.03,3.04-2.49c2.2-0.73,4.43-0.62,6.61-0.22c5.78,1.05,11.52,1.42,17.38,0.46
	c13.69-2.25,25.23-7.74,32.26-20.43c1.99-3.59,5.04-5.97,8.77-7.49c1.85-0.76,3.79-1.23,5.5,0.88c0.46-2.25-0.39-3.42-2.1-3.51
	c-1.87-0.09-3.75-0.33-5.66,0.29c-4.24,1.38-7.81,3.74-10.92,6.87c-4.24,4.25-8.97,7.74-14.73,9.65c-3.6,1.19-7.25,1.71-10.87,0.21
	c-4.01-1.66-4.76-4.76-1.93-8.03c2.11-2.44,4.94-3.95,7.77-5.41c8.06-4.17,16.82-6.52,25.3-9.57c5.14-1.84,10.54-2.83,15.99-3.07
	c7.84-0.35,15.64-0.94,23.21-3.23l9.11-3.58c2.79-1.44,5.63-2.8,8.63-5.29c-3.5,1.03-6.38,1.51-9.32,1.42l-6.8-0.72
	c0.06-0.13-0.18-0.34-0.36-0.48c-4.9-1.25-9.68-2.97-14.79-3.39c-11.19-0.92-21,3.21-30.4,8.46c-6.66,3.72-13.18,7.64-20.79,9.13
	c-4.24,0.83-8.43,0.88-12.42-1.06c-3.28-1.59-4.76-4.52-4.02-7.78c0.55-2.42,1.5-4.66,3.18-6.49c10.99-11.95,24.27-18.05,40.6-15.92
	c-2.23-1.61-5.23-2.3-10.37-2.13c-17.83,0.61-33.48,5.86-44.66,20.82c-2.29,3.06-5.3,5.45-8.42,7.69
	c-6.28,4.51-13.38,6.54-20.95,7.05c-4.89,0.33-9.75-0.16-13.93-3.09c-4.34-3.05-4.38-7.46-0.24-10.7c3.21-2.51,7.1-3.12,10.92-3.96
	c5.38-1.18,10.42-3.1,14.78-6.97c-2.44-0.57-4.38,1.06-6.51,0.48c-3.35-0.91-6.73-1.73-10.05-2.75c-6.87-2.11-13.81-3.15-21-1.95
	c-13.5,2.24-23.31,9.65-29.69,21.55c-3.66,6.82-9.09,11.27-16.23,13.87c-1.06,0.39-1.06,0.4-2.65,0.19
	c5.23-3.58,9.18-8.25,11.62-14.17l2.01-8.42c0.24-1.23,0.51-2.46,0.7-3.7c0.62-4.09,1.71-7.9,4.42-11.27
	c8.75-10.89,20.02-15.09,31.22-11.27c-2.18-3.53-6.04-3.95-9.28-5.43c-2.75-0.04-6.45-0.09-9.2-0.13
	c-3.63,1.57-7.59,2.19-11.16,4.01C635.4,61.8,626.4,71.61,621.01,84.8c-2.91,7.14-8.17,11.37-15.89,12.41
	c-4.62,1.38-5.74,0.73-6.56-3.8c-0.08-0.42-0.13-0.84-0.21-1.25c-0.4-2.08-0.52-4.28-3.38-4.66c-3.73-0.5-5.17,0.07-6.71,3.03
	c-0.37,0.71-1.27,1.54-1.99,1.89c-2.91,1.4-3.36,4.06-3.25,7.02c0.06,1.52-0.27,2.85-1.96,3.17c-3.23,0.61-3.64,2.77-3.26,5.48
	c0.23,1.64,0.22,3.59-1.39,4.24c-3.21,1.31-3.45,3.97-3.8,6.71c-0.46,3.53-0.82,3.98-4.31,4.02c-2.6,0.04-4.83,0.27-5.72,3.31
	c-0.4,1.38-1.85,1.62-3.16,1.7c-1.07,0.07-1.95-0.32-2.17-1.43c-0.58-3.03-2.87-4.88-4.77-6.98c-1.8-2-3.21-1.87-4.34,0.55
	c-1.01,2.18-2.57,2.87-4.79,2.9c-2.86,0.04-5.7-0.45-8.57-0.11c-1.15,0.14-2.47-0.08-2.44,1.7c0.46,0.83,1.24,1.21,2.11,1.22
	c3.71,0.01,7.44,0.22,11.11-0.36c2.01-0.31,3.89-1.21,4.26-3.65c0.03-0.2,0.01-0.29-0.15-0.27c-0.42,0.05,0.43-0.32,0.31,0.09
	c-0.09,2.54-0.14,2.74,1.78,3.33c1.42,0.44,1.98,1.26,2.52,2.52c1.7,3.96,7.72,4.95,10.23,1.34c1.64-2.37,3.4-2.88,5.93-3.15
	c4.7-0.51,5.34-1.48,5.06-6.41c-0.09-1.62,0.26-2.85,1.79-3.73c2.77-1.59,3.91-4.11,3.56-7.24c-0.17-1.47,0.1-2.47,1.7-2.87
	c1.6-0.4,2.74-1.65,2.91-3.1c0.45-3.97,1.48-7.49,5.15-9.7c0.23-0.14,0.31-0.55,0.45-0.83c0.45-0.93,1.11-1.55,2.23-1.44
	c1.25,0.13,1.81,0.96,2.1,2.07c0.24,0.93,0.37,1.87,0.43,2.83c0.26,4.28,1.21,5.42,5.38,5.19c4.76-0.26,9.51-0.03,14.26-0.09
	c2.83-0.04,5.62-0.36,6.52-3.82c0.14-0.53,0.6-0.91,1.11-1.08c3.15-1.06,3.78-3.36,3.24-6.3c0.24,0.79,0.22,1.64,0.09,2.41
	c-0.21,1.22,0.43,1.97,1.14,2.75c-2.57,0.74-1.91,4.3-4.8,5.13c-2.48,0.72-3.32,4.64-2.31,7.8c0.71,2.2,2.79,3.48,5.57,3.24
	c1.48-0.13,2.96-0.4,4.43-0.07c7,1.54,11.53-3.07,15.68-7.16c2.44-2.41,5.26-4.58,7.48-7.42c1.6-2.04,3.43-3.61,3.39-6.3
	c-0.07-4.7,4.81-5.75,6.55-9.1c0.19-0.37,0.98-0.3,1.5-0.39c1.47-0.25,2.93-0.33,4.43-0.27c2.94,0.12,5.82-0.09,7.18-3.4
	c0.31-0.75,0.94-1.14,1.73-1.23c3.81-0.46,7.61-0.46,11.42,0c0.94,0.11,1.63,0.58,1.69,1.59c0.07,1.04-0.66,1.48-1.53,1.75
	c-0.92,0.28-1.86,0.44-2.79,0.65c-1.62,0.37-2.96,1.05-3.7,2.69c-2.2,4.84-1.49,9.99-1.59,15.04c-0.03,1.46,6.83,7.97,8.31,7.97
	c6.61,0.02,13.26,1.28,19.81-0.72c1.65-0.5,2.87-1.8,4.61-2.09c3.47-0.58,6.49-3.05,10.25-2.49c0.42,0.06,0.94-0.15,1.18-0.51
	c1.9-2.75,4.97-4.22,7.14-6.62c1.25-1.38,2.44-2.46,4.27-2.85c0.26,1.27,0.43,2.42,0.45,3.59c0.12,5.07,1.71,6.83,6.74,7.34
	c1.31,0.13,2.42,0.31,3.21,1.62c1.62,2.71,0.7,5.97-2.26,7.2c-1.25,0.52-2.71,1.25-2.57,2.51c0.39,3.58-1.11,7.13,0.04,10.69
	c0.7,2.2,2.05,3.59,4.4,3.32c3.06-0.36,6.14,0.26,9.2-0.36c1.42-0.28,2.97-0.35,4.39,0.46c-5.17,1.31-9.9,3.64-15.48,3.74
	c-6.16,0.11-12.28-0.35-18.42-0.32c-9.51,0.05-11.04,1.7-10.12,11.06c0.04,0.42-0.03-0.1,0.03,0.32c0.44,3.42,2.19,4.94,5.7,5.11
	c4.73,0.23,9.46,0.92,14.21-0.05c-1.83,0.14-3.36,0.74-4.31,2.37c-0.88,1.49-2.31,1.74-3.83,1.84c-1.37,0.09-2.77-0.26-4.13,0.08
	c-2.11,0.53-3.29-0.35-4.35-2.17c-1.83-3.13-2.81-3.42-6.29-2.48c-1.26,0.34-2.53,0.47-3.82,0.62c-0.95,0.11-2.05,0.92-2.49,1.77
	c-1.17,2.28-3.38,2.35-5.56,2.5c-2.04,0.14-4.07,0.04-6.11-0.11c-2.68-0.19-4,0.92-4.45,3.53c-0.16,0.95-0.02,1.91-0.1,2.86
	c-0.56,6.56,1.07,13.08,0.1,19.68c-0.57,3.92,1.53,5.81,5.79,5.67c7.82-0.25,15.64-0.06,23.46-0.13c7.63-0.06,15.25,0.17,22.88-0.05
	c3.62-0.1,3.96,0.33,4.5,3.71c0.71,4.41,4.68,6.72,8.97,5.18c0.71-0.25,1.39-0.78,2.03-0.07c1.93,2.15,3.95,1.36,5.89,0.57
	c4.43-1.82,6.5-7.04,4.34-11.32c-0.88-1.75-2.02-2.61-3.44-2.34"/>
<path class="st0" d="M100.95,439.95c-0.04-3.14-0.08-6.27-0.12-9.41c1.45-4.93,0.65-9.97,0.73-14.97c0.01-0.42,0.01,0.11-0.05-0.31
	c-0.5-3.59,1.13-7.6-3.27-10.3c-2.17-1.33-1.48-4.68-1.65-7.19c-0.14-2.07-0.53-3.78-2.91-4.27c-1.03-0.21-1.56-1.02-1.9-1.97
	c-0.37-1.05-1.02-1.9-2.05-2.32c-1.81-0.73-2.99-1.92-3.37-3.88c-0.08-0.4,0.19-0.14-0.13-0.26c-3.3-1.32-4.51-4.91-7.37-6.67
	c-0.7-0.43-1.76-0.52-1.75-1.58c0-1.12,0.91-1.62,1.85-1.92c1.3-0.41,2.19-1.17,2.7-2.47c0.71-1.83,1.59-2,2.9-0.35
	c2.74,3.47,4.68,3.5,7.16,0.04c1.45-2.02,3.47-2.43,5.6-2.24c2.07,0.19,3.46-0.24,4.27-2.3c1.15-2.94,3.99-2.57,6.29-2.65
	c2.44-0.08,4.06-0.52,4.57-3.22c0.33-1.73,1.89-2.22,3.47-2.18c2.88,0.06,5.4-0.2,6.93-3.28c0.83-1.66,2.99-1.41,4.63-1.62
	c2.21-0.28,3.92-1,5.35-2.9c1.65-2.19,4.27-3.05,6.97-3.31c1.09-0.11,2.22-0.06,2.71-1.22c1.04-2.47,3.15-2.59,5.33-2.48
	c3.5,0.17,7,0.13,10.5,0.09c3.64-0.04,4.8-1.28,4.69-4.81c-0.15-5.15,0.51-5.81,5.78-5.47c2.1,0.14,3.82-0.2,4.56-2.46
	c0.64-1.92,2.12-2.5,3.98-2.51c1.38-0.01,2.76-0.03,4.14-0.02c2.52,0.03,4.67-0.47,5.41-3.33c0.27-1.05,1.12-1.53,2.13-1.66
	c1.72-0.21,3.21-1.06,4.81-1.6c2.04,0.99,1.39-1.41,2.31-1.85c2.16-0.47,3.01-2.27,3.83-3.97c0.94-1.95,2.31-2.91,4.49-2.87
	c2.1,0.04,3.76-0.61,4.16-3.02c0.27-1.64,1.47-1.96,2.87-1.77c1.61,0.21,3.17-0.09,4.75-0.29c1.11-0.14,2.2-0.5,2.55-1.61
	c0.9-2.83,3.23-3.22,5.59-3.24c2.27-0.02,4.39-0.74,6.59-1.03c0.63-0.09,1.42-0.16,1.77-0.64c2.99-4.12,7.61-3.63,11.81-4.2
	c2.33-0.32,4.37-0.76,5.47-3.13c0.44-0.96,1.4-1.28,2.39-1.34c1.61-0.1,3.14-0.43,4.58-1.21c1.42-0.76,2.67-0.13,3.88,0.61
	c1.39,0.85,2.6,0.52,3.11-0.93c1.74-5.04,6.19-4.09,9.81-4.18c2.22-0.05,4-0.17,5.26-2.01c2.43-3.56,6.2-3.63,9.66-3.1
	c2.98,0.46,5.18,0.47,6.8-2.33c0.43-0.74,1.09-1.49,1.92-1.6c2.98-0.4,5.99-2.84,8.29-2.45c3.36,0.57,4.59-1.21,6.71-2.53
	c2.94-1.83,6.63-0.73,9.87-1.8c1.14-0.37,2.3-0.47,2.84-1.68c0.95-2.12,2.76-2.46,4.77-2.36c4.47,0.23,8.89-0.38,13.33-0.66
	c1.34-0.08,2.61-0.3,3.21-1.63c0.86-1.89,2.49-2.47,4.33-2.81c1.26-0.23,2.53-0.49,3.64-1.11c2.36-1.32,4.51-1.42,6.75,0.38
	c1.93,1.55,3.79,0.91,4.61-1.27c1.03-2.77,3.01-2.96,5.51-3.18c3.72-0.32,7.7,0.25,10.98-2.34c0.62-0.49,1.42-0.3,2.16-0.14
	c0.62,0.13,1.44,0.43,1.85-0.03c3.68-4.12,8.84-1.64,13.12-2.99c0.38-0.12,0.84,0,1.27-0.04c4.8-0.49,4.84-0.5,4.96,4.17
	c0.08,2.94,0.17,5.79,3.57,7.09c0.91,0.35,1.21,1.42,1.69,2.25c0.93,1.62,2.42,2.46,4.23,2.29c1.71-0.16,1.95-1.72,2.28-3.07
	c0.28-1.14,0.61-2.26,1.57-3.05c0.26-0.18,0.55-0.26,0.87-0.27c1.93,1.77,3.83,2.42,5.64-0.17c0.79-0.3,1.57-0.26,2.33,0.1
	c2.99,2.3,3.2,6.51,5.85,8.87c2.64,2.35,2.63,5.08,2.56,8.07c-0.05,1.97-0.79,3.51-2.5,4.5c-1.78,1.03-2.89,2.37-2.82,4.59
	c0.06,1.91-1.05,2.84-2.99,2.95c-5.61,0.31-8.87,3.78-10.93,8.56c-0.76,1.77-1.78,2.82-3.67,3.02c-1.38,0.14-2.76,0.11-4.14,0.08
	c-1.71-0.03-2.95,0.36-3.79,2.17c-1.24,2.66-4.2,3.93-7.21,3.48c-1.84-0.28-1.75,0.62-1.17,1.82c0.97,2.01-0.18,2.67-1.82,2.43
	c-2.87-0.42-4.69,0.54-5.71,3.27c-0.45,1.21-1.62,1.71-2.88,1.57c-3.7-0.39-7.31,1.66-11.04,0.36c-0.62-0.21-1.33-0.02-1.7,0.57
	c-1.09,1.76-2.95,2.43-4.66,3.18c-2.36,1.03-4.75,1.81-5.46,4.75c-0.22,0.9-1.25,1.09-2.12,1.15c-1.58,0.11-3.18,0.26-4.73-0.25
	c-1.05-0.4-0.45-1.41-0.75-2.13c-0.93,0.25-1.19,1.42-2.19,1.54c-0.88,0.17-1.96,0.18-2.35-0.57c-2.33-4.55-6.63-1.51-9.88-2.56
	c-1.46-0.47-2.29,1.32-2.24,2.83c0.08,2.66-0.7,5.27-0.42,7.93c0.18,1.73-0.5,2.9-2.21,3.35c-1.43,0.37-2.59,1.03-2.98,2.54
	c-0.61,2.37-2.42,3.08-4.55,3.27c-2.32,0.2-4.32,0.8-5.68,2.95c-1.14,1.8-3.12,1.6-4.91,1.57c-2.38-0.04-4.01,0.64-4.72,3.24
	c-0.73,2.66-3.33,2.53-5.31,2.34c-2.75-0.26-4.7-0.03-5.6,3.06c-0.42,1.45-2.03,1.67-3.49,1.7c-2.75,0.05-5.17,0.53-6.67,3.37
	c-1.02,1.93-3.39,2.05-5.28,2.6c-1.78,0.52-3.43,1.07-4.53,2.69c-0.43,0.63-1.08,1.19-1.83,1.15c-3.62-0.18-7.04,1.65-10.68,1.02
	c-1.56-0.27-2.19,0.35-2.22,1.82c-0.03,1.8-1.2,2.27-2.72,2.46c-3.28,0.41-6.45,0.82-8.5,4.11c-0.99,1.59-3.19,1.48-4.98,1.64
	c-1.51,0.14-3.13,0.26-3.97,1.65c-1.8,2.97-5.1,3.16-7.8,4.44c-0.64,0.3-1.64,0.05-2.08,0.64c-2.93,3.95-7.18,2.92-11.09,2.96
	c-2.07,0.02-3.98,0.3-4.74,2.39c-0.99,2.72-2.93,3.35-5.5,3.25c-2.27-0.09-4.44-0.19-5,3c-0.31,1.73-2.22,1.86-3.71,1.62
	c-3.06-0.48-5.42,0.19-6.88,3.18c-0.67,1.39-2.12,1.64-3.55,1.7c-2.01,0.09-4.03-0.09-6.04,0.28c-2.36,0.43-4.88,0.31-5.67,3.55
	c-0.34,1.38-2.14,1.57-3.51,1.81c-1.15,0.2-2.58,0.09-3.24,1.1c-2.84,4.36-7.4,3.61-11.49,3.8c-2.08,0.09-3.67,0.22-4.89,2.06
	c-2.29,3.45-5.95,3.31-9.43,3.21c-1.92-0.06-3.23,0.16-3.86,2.25c-0.43,1.42-1.7,2.17-3.19,2.25c-2.02,0.12-3.99,0.76-6,0.7
	c-2.53-0.08-4.29,0.52-5.69,3.02c-1.26,2.25-4.05,2.52-6.54,2.52c-1.56,0-2.35,0.32-1.42,1.97c0.8,1.43,0.36,2.71-0.99,3.14
	c-2.96,0.94-5.35,3-8.22,4.02c-3.27,1.17-6.74,0.38-10.11,0.52C105.39,440.12,103.15,440.05,100.95,439.95z"/>
<path class="st0" d="M100.95,439.95c1.68-1.1,3.42-0.88,5.37-0.85c3.82,0.07,7.94,1.04,11.46-0.58c2.77-1.27,5.41-2.88,8.32-3.96
	c1.12-0.42,0.69-1.28-0.17-1.91c-1.01-0.74-1.1-1.9-0.6-2.87c0.58-1.11,1.62-0.46,2.54-0.28c2.88,0.56,5.65-0.96,6.93-3.68
	c0.54-1.14,1.42-1.9,2.75-1.77c2.78,0.27,5.46-0.6,8.19-0.63c2.12-0.03,3.5-0.7,3.58-3.04c0.04-1.21,0.56-2.29,1.89-1.9
	c1.82,0.53,3.69-0.25,5.24,0.07c3.73,0.78,5.11-1.7,6.73-3.9c0.82-1.11,1.7-1.78,2.88-1.36c1.71,0.6,3.31,0.01,4.94,0.02
	c3.25,0.02,6.12-0.21,7.71-3.61c0.21-0.45,1.03-0.85,1.59-0.88c2.81-0.13,5.12-0.06,6.06-3.95c0.58-2.39,4.4-0.9,6.63-1.79
	c0.92-0.36,2.1-0.14,3.16-0.05c2.45,0.21,4.42-0.03,5.48-2.86c1.03-2.75,3.73-2.44,6.05-2.15c2.07,0.26,4.07,1.08,3.62-2.5
	c-0.17-1.33,1.3-2.04,2.74-2.04c1.38,0,2.76-0.06,4.14,0.01c1.83,0.1,2.88-0.36,3.28-2.47c0.41-2.18,2.2-3.45,4.46-3.22
	c2.22,0.23,4.38-0.01,6.57-0.04c1.92-0.02,3.9,0.3,4.46-2.38c0.09-0.45,1.13-1.15,1.46-1.02c2.65,1,4.1-2.23,6.58-1.77
	c0.77,0.14,1.43-0.39,1.67-1.2c0.85-2.78,3.02-3.17,5.51-3.24c2.31-0.06,4.14-0.53,5.6-3.03c1.38-2.37,4.68-2.4,7.38-2.65
	c1.55-0.14,2.97,0.22,2.28-2.38c-0.47-1.76,0.67-3.21,2.83-2.1c1.5,0.78,2.84,0.58,4.25-0.01c1.29-0.54,2.64-0.73,4.04-0.63
	c1.92,0.13,3.42,0,4.66-2.12c1.44-2.46,4.87-1.53,7.16-2.87c0.68-0.4,1.87-0.21,2.06-1.18c0.83-4.29,4.36-3.71,7.23-3.84
	c1.91-0.09,3-0.35,3.21-2.44c0.25-2.45,1.62-3.27,3.99-2.46c1.33,0.45,2.71,0.38,4.07,0.02c1.26-0.34,2.32-0.42,2.38-2.43
	c0.06-1.99,1.69-3.2,4.05-3.1c2.62,0.11,5.42,0.78,6.79-2.88c0.53-1.43,2.86-1.54,4.6-1.53c2.34,0.01,4.08-0.66,4.45-3.34
	c0.24-1.79,1.57-2.36,3.22-2.41c1.21-0.04,2.36-0.57,1.92-1.87c-1.05-3.1,0.58-6.03,0.26-9.09c-0.27-2.63,1.63-4.15,4.21-3.55
	c2.2,0.52,4.25,1.05,6.47,0.04c0.95-0.43,1.98-0.11,1.96,1.25c-0.02,2.32,1.47,2.5,3.22,2.4c0.93-0.67,1.48-0.19,1.91,0.64
	c1.38,0,2.76-0.04,4.14,0.01c1.59,0.06,2.91,0.07,2.97-2.18c0.04-1.45,1.28-2.36,2.65-2.86c2.71-0.98,5.87-1.17,7.08-4.6
	c0.32-0.91,1.49-0.58,2.28-0.23c4.06,1.76,8.06-1.17,12.14-0.17c0.54,0.13,1.09-0.53,1.25-1.24c0.83-3.8,3.26-4.52,6.65-3.46
	c0.35,0.11,0.8-0.09,1.14-0.14c0.31-1-0.56-1.13-0.91-1.59c-0.66-0.87-0.77-1.81-0.06-2.62c0.8-0.92,2.24-1.1,2.86-0.34
	c1.41,1.74,1.74,0.42,2.97-0.23c2-1.05,3.42-1.94,3.67-4.36c0.09-0.88,1.34-0.83,2.2-0.84c1.59,0,3.19-0.08,4.78,0.01
	c2.75,0.17,4.31-0.83,4.09-3.8c-0.02-0.31,0-0.9,0.07-0.91c3.26-0.49,2.8-5.06,6.16-5.53c2.03-0.29,3.55-2.41,6.09-1.38
	c1.08,0.44,1.94-0.97,1.57-2.13c-0.84-2.65,0.59-3.9,2.59-5.04c3.52-2,3.51-8.04,0.64-10.8c-1.45-1.4-2.91-3.54-3.48-5.5
	c-0.49-1.69-7-1.12-7.64-2.59c-19.39-4.26,5.08-7.81,5.93-9.61c0.44-0.46,1.12-0.03,1.49,0.34c0.92,2,2.63,3.68,4.04,7.18
	c4.35,5.6,5.11,12.12,4.74,18.89c-0.06,1.04-0.38,2.08-0.59,3.12c-0.92,4.54-3.13,7.96-7.18,10.67
	c-16.11,10.78-32.26,21.49-48.91,31.43c-1.64,0.98-3.31,1.87-5.17,2.35c-11.6,6.53-23.12,13.18-34.8,19.57
	c-49.93,27.34-101.38,51.4-154.83,71.07c-18.51,6.81-37.15,13.28-55.88,19.44c-9.99,3.28-20.07,6.5-30.97,7.63
	C100.42,444.09,100.69,442.02,100.95,439.95z"/>
<path class="st0" d="M194.55,323.41c-1.78,0.83-3.38,2.14-5.54,1.95c-0.87-0.08-1.38,0.38-1.44,1.3c-0.22,3.09-2.38,3.68-4.91,3.75
	c-1.06,0.03-2.12,0.03-3.18,0c-2.63-0.06-5.25-0.56-5.88,3.38c-0.31,1.95-2.63,1.8-4.33,1.69c-1.24-0.08-2.4-0.4-3.72-0.07
	c-1.63,0.41-2.39,0.91-1.92,2.65c0.22,0.81,0.39,1.63,0.38,2.47c-0.07,3.67-1.41,6.15-6.54,4.84c-2.77-0.71-5.64-0.51-8.45,0.04
	c-2.15,0.42-5.46-0.89-5.8,2.8c-0.08,0.9-1.03,1.61-1.9,1.24c-2.24-0.94-3.81,0.38-5.58,1.24c-0.63,0.31-1.72,0.08-1.95,0.84
	c-1.34,4.55-5.4,3.6-8.6,4.31c-0.99,0.22-1.79,0.25-2.11,1.44c-0.76,2.83-2.89,3.31-5.46,3.08c-2.57-0.23-4.94-0.3-4.76,3.54
	c0.07,1.54-1.7,2.32-3.08,1.95c-1.36-0.36-2.5,0.23-3.69,0.14c-2.47-0.19-3.68,0.79-4.24,3.16c-0.39,1.67-1.56,2.27-3.42,1.78
	c-2.69-0.7-5.02-0.54-6.47,2.61c-1.35,2.94-5.93,2.85-7.64,0.08c-0.42-0.69-0.72-1.45-1.44-2.93c-0.32,3.36-1.37,5.31-4.44,5.15
	c-0.26-0.01-0.75,0.53-0.78,0.86c-0.08,0.69,0.54,0.8,1.08,0.82c2.27,0.07,3.6,1.17,3.68,3.49c0.05,1.52,1,1.69,2.15,1.62
	c1.59-0.09,2.65,0.93,2.65,2.19c0,2.51,1.65,3.12,3.43,3.85c0.99,0.41,2.01,0.93,1.95,2.23c-0.08,1.6,0.81,1.88,2.17,2
	c2.1,0.19,2.58,1.71,2.72,3.59c0.21,2.82-0.38,5.76,1.45,8.36c0.43,0.61,0.55,1.25,1.44,1.38c2.44,0.34,2.75,1.76,2.12,3.91
	c-1.1,3.71,0.66,7.44,0.07,11.24c-0.29,1.83-0.33,3.89,0.23,5.84c0.49,1.7-1.13,2.32-1.95,3.34c-1.21-7.49-2.48-14.93-5.38-22.03
	c-5.42-13.28-13.64-24.17-26.14-31.55c-0.26-0.15-0.5-0.35-1.04-0.71c5.53-4.43,11.31-8.21,17.3-11.66
	c21.33-12.26,43.21-23.44,65.61-33.61c1.21-0.13,2.5,0.23,3.5-0.92c0.69-0.79,1.68-1.08,2.42-0.1c0.67,0.88,0.21,1.8-0.39,2.6
	c-1.07,1.43-2.94,2.07-3.77,3.75c-2.69,2.5-6.16,3.64-9.38,5.14c-13.04,6.06-25.8,12.67-38.61,19.21c-2.07,1.06-4.2,2.01-6.21,3.18
	c-2.25,1.3-4.52,2.57-6.87,3.7c2.44-1.16,4.8-2.45,7.14-3.79c16.55-8.61,33.22-16.99,50.09-24.95c0.66-0.31,1.31-0.74,2.11-0.56
	c1.62,1.05,2.58,2.7,5.29,2.39c2.53-0.28,2.98-0.95,2.85-3.05c-0.07-1.14-0.09-2.31,0.43-3.4c2.6-2.28,5.99-2.99,8.97-4.53
	c4.11-2.12,8.41-3.82,12.62-5.73c-6.82,2.69-13.26,6.27-20.13,8.87c-2.75-0.98-2.03-3.39-2.23-5.42
	c19.95-9.25,40.35-17.41,60.91-25.16c43.99-16.6,88.68-31,134.22-42.73c16.99-4.37,34.07-8.34,51.28-11.74
	c1.03-0.2,2.1-0.17,3.16-0.25c1.86-1.18,3.83-0.9,5.82-0.45c3.4,0.43,4.56,0.84,3.55,1.74c-6.41-2.53,6.24-0.22,6.74,1.15
	c0.3,0.82-0.95-0.81-0.25-0.28c2.89,2.2,3.21,2.69,5.12,4.8c1.48,1.64-11.2,6.8-10.15,7.89c-0.59,1.12-1.26,2.18-1.3,3.53
	c-0.07,1.87-1.01,3.73-2.84,3.64c-2.05-0.1-4.5-0.55-5.35-3.12c-0.23-0.69-0.12-1.74-0.9-1.9c-4.89-1-4.18-4.83-4.24-8.24
	c-0.04-2.46,0.45-3.95-3.55-2.96c-3,0.74-6.68,1.6-10.15,0.74c-1.38-0.34-2.73-0.24-3.21,1.63c-0.17,0.67-1.17,1.62-1.6,1.3
	c-3.33-2.48-5.29,1.84-8.24,1.52c-2.9-0.31-5.79,0.92-8.75,0.58c-0.93-0.11-1.78,0.49-2.1,1.36c-1.74,4.61-3.58,5.1-7.52,2.24
	c-0.26-0.19-0.45-0.47-0.72-0.62c-1.08-0.6-11.14,2.92-11.48,4.13c-0.53,1.9-1.75,2.39-3.55,2.44c-5.07,0.14-10.11,0.93-15.2,0.63
	c-0.83-0.05-2.09-0.2-2.23,0.74c-0.74,5.11-5.81,2.29-8.25,4.46c-0.51,0.45-2.87-0.71-4.64,0.1c-1.43,0.65-2.6,1.01-2.8,2.81
	c-0.09,0.78-0.57,1.68-1.5,1.9c-1.27,0.3-1.14-0.82-1.51-1.54c-0.69-1.36-1.7-0.84-2.66-0.26c-1.97,1.19-3.81,2.49-6.42,2.08
	c-1.64-0.26-2.59,1.38-3.25,2.67c-1.38,2.72-3.57,2.69-5.96,1.97c-3.37-1.02-7.58,0.15-9.85,2.78c-1.59,1.84-3.36,3.41-6.01,1.96
	c-2.01-1.11-3.43,1.25-5.41,0.75c-2.78-0.7-2.72,1.76-3.51,3.4c-0.96,1.99-2.36,3-4.4,0.95c-1.05-1.05-2.26-1.41-3.63-0.19
	c-0.58,0.52-1.57,0.9-2.33,0.83c-2.25-0.19-3.82,0.27-4.54,2.73c-0.4,1.39-2.05,1.47-3.23,1.67c-2.38,0.41-4.81,0.55-7.23,0.75
	c-1.95,0.16-3.75,0.38-4.71,2.5c-0.77,1.68-2.55,1.7-4.09,1.94c-2.95,0.48-5.92,0.87-8.88,1.29c-0.63,0.09-1.35,0.05-1.53,0.84
	c-0.45,1.92-0.85,3.91-3.5,3.61c-1.78-0.2-3.39,1.17-5.29,0.25c-1.2-0.58-2.22-0.33-1.99,1.6c0.26,2.17-1.59,3.42-3.17,3.11
	c-4.48-0.88-5.74,2.45-6.97,5.21c-0.94,2.11-1.99,1.66-3.43,1.31C195.35,322.1,195.55,323.16,194.55,323.41z"/>
<path class="st0" d="M591.11,301.45c-4.67,0.74-8.77,3.35-13.43,4.14c-1.23,0.21-2.47,0.41-3.7,0.62c-2.38,0.28-4.75,0.32-7.13-0.02
	c-4.61-0.51-8.49-2.43-11.46-6.03c-2.96-3.59-5.78-7.3-8.79-10.85c-2.75-3.24-5.9-6.06-9.64-8.15c-0.88-2.54-2.95-3.6-5.36-3.76
	c-2.96-0.19-4.82-1.38-5.33-4.39c-0.07-0.42-0.18-1.11-0.49-1.11c-4.53-0.08-4.31-5.8-8.08-6.76c-0.65-0.17-0.87-0.86-1.15-1.44
	c-1.61-3.33-6.45-3.87-7.02-8.11c-2.29-0.25-3.44-1.78-4.34-3.7c-0.38-0.81-1.37-0.94-2.19-1.15c-1.09-0.28-2.1-0.84-2.37-1.92
	c-0.44-1.76-1.22-2.9-3.07-3.48c-1.16-0.37-1.12-1.71-0.72-2.77c0.54-1.41,0.18-2.48-1.02-3.32c-2.77-3.61-1.6-3.49,1.19-6.84
	c3.62-4.36,7.65-9.43,11.18-13.88c2.89-3.23,4.81-6.8,7.56-10.15c0.57-0.69,1.38-1.81,0.82-2.71c-0.63-1.03-2.8-0.86-3.57-0.63
	c-4.65,1.41-9.41,3.2-14.11,4.47c-3.1,0.84-5.52,3.99-7.68,5.96c-4.22,4.48-8.43,7.9-12.86,12.15c-2.34,2.25-1.25,1.58-3.74-0.51
	c-6.82-5.72-13.03-12.11-19.75-17.94c-0.81-0.7-1.59-1.38-2.69-1.6c-2.26-0.46-3.01-0.94-2.32-2.37c0.65-1.33,1.55-2.39,3.21-1.11
	c0.65,0.5,1.38,1.28,2.22,0.46c0.71-0.7,0.22-1.6,0-2.4c-0.22-0.82-0.56-1.6-0.77-2.42c-1.04-4.02-0.62-7.68,2.18-11.04
	c2.85-3.41,6-6.54,8.8-9.99c0.47-1.04,0.95-2.08,1.42-3.12c0.66-4.68,0.2-9.64,3.3-13.74c1.71-0.5,2.72-1.86,3.93-3.04
	c2.22-2.18,4.49-1.78,5.49,0.79c-0.94,0.79,0.04,1.97-0.57,2.83c0.56,1.39-0.31,3.76,2.47,3.65c8.02-0.76,12.77-5.59,13.48-13.65
	c0.39-4.43,0.63-8.89,1.31-13.27c1.88-12.19,8.95-19.9,20.69-23.57c6.96-2.17,14.02-4.29,18.96-10.24c1.83-2.2,3.49-4.51,5.51-6.57
	c4.63-4.71,9.98-5.97,16.62-3.8c-6.54,0.85-10.52,4.13-12.14,10.25c-1.3,4.87-4.82,7.8-9.25,9.83c-2.49,1.14-4.97,2.33-7.38,3.62
	c-0.98,0.53-2.27,1.3-1.85,2.62c0.39,1.25,1.77,1.35,2.97,1.31c6.23-0.2,11.71-2.39,16.7-6.09c7.49-5.56,13.03-12.5,16.68-21.16
	c3-7.13,7.61-13.19,14.46-17.21c0.45-0.26,0.94-0.45,1.42-0.66c0.06-0.02,0.18,0.1,0.46,0.27c-4.97,3.72-6.11,8.94-6.33,14.75
	c-0.26,7-3.57,12.72-8.53,17.53c-2.28,2.21-4.85,4.13-6.84,6.64c-1.22,1.53-2.35,3.11-1.19,5.17c1.24,2.21,3.11,1.23,4.78,0.81
	c4.86-1.24,7.96-4.54,9.24-9.17c2.31-8.42,5.89-16.06,12.05-22.34c7.41-7.56,16.1-11.56,26.91-9.32c1.84,0.38,3.62,1.01,5.24,2.49
	c-4.55,0.45-8.47,1.68-11.61,4.87c-3.72,3.78-3.45,5.79,1.25,8c-1,3.18-3.29,1.2-5.04,1.22c-1.74,0.01-1.92-1.24-2-2.64
	c-0.05-0.93-0.4-1.85-0.55-2.78c-0.8-4.92-1.49-5.44-6.27-4.73c-0.65,0.1-1.61,0.18-1.62,0.75c-0.04,3.18-2.55,3.86-4.65,5.21
	c-1.5,0.96-1.35,3.15-1.16,4.68c0.36,2.84-0.08,4.48-3.34,4.72c-2.38,0.17-2.29,2.19-1.97,3.88c0.56,2.98,0.41,5.25-3.14,6.4
	c-2.7,0.87-1.63,3.87-1.98,5.83c-0.61,3.44-0.95,4.13-4.62,4.2c-2.45,0.04-4.94-0.67-5.47,3.34c-0.25,1.9-3.27,1.9-5.29,1.7
	c-1.6-0.16-1.84-1.36-1.82-2.79c0.02-2.1-1.89-3.11-3.01-4.53c-0.56-0.71-1.3-1.24-1.77-2.11c-0.58-1.06-1.92-1.05-2.18,0.06
	c-1.49,6.38-6.47,3.95-10.33,4.2c-2.16,0.14-4.4-0.62-6.41,0.76c-1.9,1.44-3.76,0.61-5.62-0.09c-0.76-0.41-1.32-1.03-1.75-1.77
	c-2.46-4.17-2.47-4.17-7.55-3.34c-2.28,0.49-4.18,1.53-5.2,3.77c-1.8,1.4-4.44,1.99-4.47,5.05c-0.01,0.67-0.97,1.27-1.69,1.27
	c-2.62,0.01-2.96,1.83-3.25,3.79c-0.22,1.46-0.6,2.9-0.43,4.41c0.22,1.95-0.39,3.69-2.02,4.72c-1.64,1.03-1.8,2.46-1.78,4.09
	c-0.03,0.33-0.1,0.65-0.18,0.96c-0.52,3.16-0.14,6.35-0.24,9.52c-0.11,3.59-0.4,7.06-4.26,8.83c-0.19,0.09-0.41,0.24-0.46,0.42
	c-1.09,4.41-4.51,4.06-7.84,3.8c-2.04-0.16-3.98,0.54-5.99,0.63c-2.97,0.13-5.6-0.23-6.39-3.97c-0.76,2.01-1.38,3.79-0.83,5.83
	c0.55,2.06-0.19,3.97-1.08,5.81c-0.58,1.04-1.59,1.62-2.48,2.33c-1.15,0.91-1.8,2-1.4,3.52c0.35,3.28,0.17,6.25-3.95,7.03
	c-0.54,0.1-0.86,0.61-0.95,1.16c-0.38,2.21-1.88,3.42-4.38,4.11c3.61,1.93,3.96,4.63,3.95,7.96c-0.02,3.07-1.15,7.02,3.13,8.74
	c0.29,0.14,0.55,0.33,0.78,0.55c1.19,1.82,2.1,3.85,4.65,4.31c0.91,0.16,1.49,1.27,1.65,2.21c0.41,2.34,2.16,2.26,3.86,2.36
	c1.78,0.1,2.44-0.94,2.58-2.52c0.02-0.21,0.04-0.51,0.18-0.6c3.15-1.84,4.66-5.54,7.98-7.12c0.88-0.42,1.71-0.67,2.21-1.59
	c0.68-1.25,1.82-2.05,3.06-2.7c0.57-0.29,1.43-0.53,1.57-1.02c1.83-6.48,7.7-3.69,11.63-4.7c4.09-1.05,8.64-0.25,12.99-0.23
	c2.1,0.01,3.7,0.82,4.6,2.79c0.96,2.12,0.4,4.11-1.76,5c-1.7,0.7-2.54,1.74-2.74,3.49c-0.22,1.93-1.32,3.16-3.26,3.33
	c-1.37,0.13-1.84,0.77-1.82,2.03c0.03,1.72-0.98,3.24-1.01,4.96c-0.01,0.54-0.28,1.25-0.75,1.32c-2.92,0.42-3.38,2.72-4.01,4.96
	c-0.14,0.5-0.54,1.07-1.01,1.19c-3.17,0.8-3.91,4.26-6.42,5.76c-0.78,0.46-1.01,1.02-0.41,1.82c0.61,0.8,0.82,1.71,0.56,2.71
	c-0.23,0.96-1.11,1.39-1.74,2.1c-0.32,0.17,0.27,0.38,0.06,0.02c-0.05-0.09,0.24-0.28,0.42-0.38c0.37-0.19,0.77-0.22,1.17-0.23
	c1.59,0.11,2.66,0.97,2.8,2.52c0.16,1.79,1.15,2.59,2.7,3.05c1.19,0.36,2.04,1.13,2.4,2.34c0.27,0.9,0.78,1.42,1.71,1.65
	c2.05,0.49,3.39,1.68,3.56,3.91c0.09,1.18,0.85,1.57,1.89,1.78c1.05,0.21,2.38,0.53,2.59,1.58c0.47,2.34,1.72,3.68,3.99,4.18
	c0.73,4.17,6.76,3.96,7.05,8.59c0.06,1.02,1.16,1.48,2.24,1.25c3.25-0.68,5.61,0.97,7.44,3.23c1.4,1.74,2.8,2.25,4.92,1.86
	c3.44-0.63,4.21-0.13,5.48,3.13c0.28,0.72,0.44,1.43,1.34,1.54c2.56,0.33,3.17,2.08,3.24,4.31c0.05,1.37,0.04,3.46,0.72,3.94
	c2.83,2.02,4.43,5.28,7.32,7.03c1.64,0.99,3.79,1.22,5.67,1.88c1.66,3.45,2.46,3.66,5.2,1.09c2.15-2.01,4.54-2.86,7.52-2.65
	c2.74,0.2,5.5-0.58,8.25-0.2C589.83,299.16,591.71,299.06,591.11,301.45z"/>
<path class="st0" d="M37.73,407.41c0.49-1.7,1.82-2.88,2.69-4.34c2.07,0.56,1.44,2.35,1.47,3.64c0.13,5.17,0.05,10.33,0.05,15.5
	c0,0.84-0.04,1.69,0.07,2.53c0.11,0.85,0.26,1.72,1.36,1.85c1.05,0.12,1.52-0.52,1.78-1.41c0.15-0.51,0.29-1.01,0.54-1.48
	c0.19-0.32,0.47-0.49,0.84-0.51c0.67,0.15,1.13,0.61,1.41,1.19c1.1,2.35,2.73,3.16,5.12,1.81c0.84-0.48,1.6-0.3,2.41,0.09
	c2.29,1.1,3.13,0.07,3.14-2.16c0.02-3.6-0.03-7.21,0.03-10.81c0.02-1.25-0.14-2.58,0.96-3.55c0.75-0.3,1.43-0.25,2.05,0.31
	c0.86,1.34,0.69,2.85,0.71,4.32c0.05,3.29-0.06,6.57,0.06,9.86c0.04,1.01-0.03,2.34,1.53,2.29c1.48-0.05,1.47-1.34,1.52-2.37
	c0.14-2.96,0.04-5.93,0.06-8.9c0.01-1.17-0.05-2.34,0.17-3.49c0.2-1.07,0.5-2.18,1.91-2.09c1.21,0.08,1.43,1.1,1.62,2.05
	c0.16,0.84,0.14,1.69,0.15,2.54c0.01,2.86-0.08,5.73,0.04,8.58c0.06,1.34-0.61,3.57,1.47,3.59c2.36,0.02,1.54-2.33,1.61-3.73
	c0.14-2.86-0.05-5.73,0.08-8.58c0.08-1.77-0.54-4.45,2.16-4.5c2.78-0.05,2.16,2.65,2.24,4.41c0.16,3.39-0.05,6.78,0.11,10.17
	c0.05,1.03,0.07,2.33,1.57,2.3c1.53-0.02,1.43-1.36,1.47-2.37c0.13-3.5,0.02-7,0.06-10.49c0.02-1.58-0.14-3.18,0.35-4.74
	c0.32-0.75,0.82-1.21,1.7-1.04c1.3,0.99,1.02,2.46,1.05,3.78c0.08,3.69-0.11,7.39,0.08,11.07c0.2,3.69,1.83,4.69,5.11,3.06
	c1.67-0.83,2.07-0.12,2.28,1.25c0.36,2.26-0.65,3.41-3.63,4.18c-0.88,0.23-2.15,0.13-2.12,1.41c0.03,1.56,1.44,1.15,2.41,1.32
	c2.48,0.44,4.67-1.15,7.1-1.01c0.32,4.36-0.2,8.64-1.24,12.88c-0.32,1.32-0.87,2.07-2.22,2.25c-11.65,1.5-23.3,3.34-35.03,0.73
	c-6.8-1.52-13.17-3.88-17.94-9.34c-3.07-3.52-5.03-7.51-5.36-12.23c0.38-0.9,0.66-1.55,2.02-1.15c3.1,0.91,3.41,0.64,3.43-2.6
	C38.23,418.12,38.43,412.75,37.73,407.41z"/>
<path class="st0" d="M61.3,410.02c-0.6,0-1.2,0-1.79,0c-1.46,0.14-1.47-1.27-2.1-2c-2.36-2.75-7.75-2.11-9.09,1.14
	c-0.38,0.93-1.03,2.09,0.19,2.83c1.09,0.66,2.03,0.12,2.59-0.98c0.76-1.49,1.95-2.16,3.27-0.96c1.17,1.07,0.78,2.5-0.12,3.72
	c-0.12,0.17-0.26,0.35-0.44,0.45c-3.67,2.06-5.84,5.27-7.14,9.17c-0.15,0-0.3,0-0.45,0c-0.95-0.72-1.04-1.8-1.04-2.84
	c-0.01-5.02-0.29-10.05,0.15-15.06c0.13-0.59,0.36-1.17,0.84-1.56c1.43-1.17,0.71-1.8-0.54-2.33c-0.89-0.6-2.58-0.01-2.69-1.77
	c5.21-6.4,11.13-12.08,17.4-17.42c2.64-2.24,4.26,0.57,6.29,1.33c-0.03,0.15-0.07,0.31-0.1,0.46c-0.44,0.96-1.26,1.47-2.23,1.6
	c-1.67,0.22-2.7,1.07-3.17,2.67c-0.12,0.39,0.18,0.11-0.15,0.26c-3.43,1.57-4.55,5.64-7.84,7.3c-2.25,1.13-2.89,3.25-2.96,5.27
	c-0.08,2.14,1.92,2.74,3.7,2.29c2.36-0.59,4.64-0.06,6.95-0.01c1.21,0.02,2.4,0.37,2.12,2.07C62.12,407,62.6,408.85,61.3,410.02z"/>
<path class="st0" d="M87.66,405.56c-0.95,0-1.92,0.12-2.85-0.02c-2.1-0.3-2.57,0.84-2.49,2.58c-0.55,0.03-0.99,0.23-1.22,0.77
	c-1.44-0.13-1.72-2.52-2.82-2.15c-3.27,1.09-6.5,0.02-9.65,0.38c-2.12,0.25-2.94,0.24-3-1.93c0.57-1.51,1.83-1.46,3.15-1.51
	c3.38-0.13,6.77-0.05,10.15-0.14c0.92-0.02,2.1,0.11,2.57-0.88c0.49-1.04-0.68-1.63-1.06-2.44c-1.63-3.44-5.73-4.64-7.26-8.2
	c-0.43-0.99-1.87-0.8-2.88-1.07c-3.41-0.88-4.88-3.56-3.84-6.96c0.07-0.09,0.13-0.17,0.2-0.26
	C76.43,388.33,82.92,396.1,87.66,405.56z"/>
<path class="st0" d="M470.59,162.11c1.45-3.75,4.61-5.98,7.58-8.32c2.95-2.31,5.51-4.95,7.49-8.12c0.6-0.96,1.22-2.01,0.98-3.26
	c1.51,1.41,0.49,2.86-0.04,4.19c-1.81,4.6-4.5,8.75-6.98,13c-1.9-2.07-3.88-2.01-5.54,0.37
	C473.18,161.27,472.35,162.38,470.59,162.11z"/>
<path class="st0" d="M90.14,411.24c-0.02,3.48-0.04,6.97-0.07,10.45c-0.01,0.75-0.01,1.55-1.04,1.65c-0.87,0.09-1.52-0.26-1.47-1.2
	c0.27-5.3-0.76-10.65,0.56-15.91C88.78,407.92,89.94,409.39,90.14,411.24z"/>
<path class="st0" d="M152.4,336.03c0.32-1.97,2.14-2.43,3.44-3.42c0.79-0.6,1.65-1.58,0.9-2.37c-1.05-1.11-1.24,0.24-1.86,0.92
	c-1.07,1.19-2.48,0.61-3.69-0.17c2.61-1.2,5.23-2.4,7.84-3.6c2.01,1.06,0.03,4.07,2.4,4.95
	C158.83,334.59,156.18,336.69,152.4,336.03z"/>
<path class="st0" d="M481.53,166.08c-4.55,1.31-1.75-2.36-2.47-3.65C479.69,163.78,480.18,165.22,481.53,166.08z"/>
<path class="st0" d="M591.11,301.45c-0.1-0.81-0.48-1.54-1.3-1.59c-4.78-0.31-9.53-0.12-14.24,0.9c-1.78,0.38-2.23,2.17-3.54,3.01
	c-1.21,0.78-2.3,1.24-3.81,0.48c-1.79-0.9-0.77-2.11-0.68-3.25c-1.03-0.86-2.36-1.09-3.56-1.2c-2.8-0.24-5.15-0.64-5.14-4.27
	c0-0.81-0.93-1.49-1.85-1.47c-2.27,0.05-2.79-1.2-2.94-3.2c-0.11-1.45-0.6-2.88-0.55-4.39c0.03-1.03-0.38-2.11-1.36-2.3
	c-2.04-0.38-2.88-1.47-3.48-3.43c-0.61-2.01-2.53-2.39-4.49-1.82c-2.43,0.71-4.21,0.65-5.81-2.01c-1.31-2.18-3.71-3.8-6.79-2.91
	c-1.63,0.47-2.84-0.06-2.84-1.89c0-2.39-1.09-3.55-3.42-3.6c-1.45-0.03-2.14-0.69-2.07-2.17c0.02-0.41,0.05,0.1,0.01-0.32
	c-0.23-2.74-3.47-1.94-4.3-3.54c-0.89-1.72-0.68-4.09-3.59-3.86c-1.6,0.13-1.98-0.9-1.98-2.22c0-0.87-0.05-2.22-0.7-2.3
	c-3.43-0.42-4.3-4.1-7.06-5.26c-1.48-0.63-2.29-1.47-2.52-3.24c-0.32-2.57-0.67-5.28-3.11-7.01c-0.7-0.49-1.08-1.34-0.02-1.68
	c1.83-0.59,2.35-2.06,2.73-3.58c0.3-1.2,0.98-1.34,2.03-1.49c1.99-0.28,3.3-1.41,3.2-3.61c-0.08-1.86,0.55-2.87,2.6-2.46
	c1.7,0.34,2.5-0.65,2.31-2.11c-0.18-1.35,0.46-2.5,0.45-3.73c-0.01-2.01,0.23-3.44,2.79-3.6c1.67-0.1,2.3-1.51,2.42-3.22
	c0.12-1.77,0.29-3.52,3.03-3.4c1.9,0.09,1.73-1.9,1.65-3.18c-0.13-2.11-0.83-4.05-3.4-4.23c-2.11-0.14-4.28-0.31-6.35,0.02
	c-4.04,0.64-8.29-0.71-12.18,1.3c-0.88,0.45-1.59-0.19-2.38-0.48c-2.03-0.77-3.71-0.21-4.1,2c-0.35,1.98-1.41,2.95-3.14,3.54
	c-0.6,0.21-1.38,0.51-1.53,1.06c-0.61,2.23-2.04,2.85-4.21,2.84c-1.37-0.01-1.86,1.2-1.86,2.51c0,1.53-0.62,2.25-2.29,2.32
	c-1.62,0.07-2.74,1.07-2.79,2.88c-0.04,1.3-0.01,2.76-1.85,2.69c-1.63-0.06-3.67,0.28-4.38-1.72c-0.76-2.14-1.59-3.68-4.18-4.04
	c-1.59-0.22-1.36-2.81-2.97-3.49c-2.84-1.21-4.49-4.89-3.6-8.94c0.6-2.74-0.07-4.96-1.67-7.05c-0.32-0.42-0.96-1.12-0.66-1.27
	c2.34-1.17,2.17-4.34,4.13-5.45c4.1-2.31,4.54-2.89,3.08-7.22c-1-3.4,2.04-3.77,3.82-5.1c1.37-2.19,2.5-4.35,1.42-7.11
	c-0.54-1.38,0.14-2.86,0.51-4.91c3.02,4.99,6.99,4.03,11.19,2.94c1.66-0.43,3.56,0.07,5.31,0.49c0.88,0.21,1.92,0.36,2.37-0.35
	c2.89-4.58,8.13-8.04,6.49-14.77c-0.63-2.58-0.5-5.43,0.11-8.14c0.63-0.61-0.04-2.01,0.95-2.18c4.32-0.73,2.79-4.34,3.13-6.73
	c0.21-1.49,0.33-3.11,0.54-4.65c0.26-1.87,0.72-3.78,3.32-3.85c0.66-0.02,1.82-0.54,1.79-1.13c-0.16-3.17,3.02-3.67,4.29-5.66
	c0.42-2.98,2.74-3.43,5.1-3.82c2.04-0.39,4.08,0.3,6.11-0.05c1.06-0.18,1.12,0.47,1.23,1.27c0.22,1.56,0.63,3.07,2.21,3.87
	c1.92,0.14,3.76,0.95,5.73,0.64c2.82,1.34,5.78-0.04,8.65,0.4c0.59,0.09,1.23-0.24,1.84-0.18c4.05,0.38,5.8-0.75,6.95-4.62
	c0.83,0.87,0.12,1.94,0.47,2.82c0.19,0.47,0.64,1.28,0.79,1.24c3.78-1.03,3.39,2.08,4.26,4.08c0.71,1.66,2.37,2.31,3.99,1.91
	c2.03-0.5,4.86-0.18,5.38-3.05c0.38-2.11,1.08-2.62,3.15-2.05c1.87,0.52,3.76-0.39,5.58-0.84c1.34-0.33,1.88-1.63,1.48-3.09
	c-0.81-2.93-1.09-5.26,2.69-6.82c2.05-0.85,3.17-3.63,2.24-6.36c-0.68-2-0.42-3.04,2.14-3.28c2.78-0.26,3.13-2.9,3.22-5.08
	c0.11-2.66-0.44-5.39,3.43-5.85c1.01-0.12,1.47-1.34,1.57-2.23c0.22-2.01,1.37-2.38,3.06-2.17c1.58,0.19,2.88,0.5,2.89,2.58
	c0.01,1.55,0.74,2.99,0.4,4.68c-0.34,1.64,0.69,2.97,2.46,3.01c2.08,0.05,4.13,0.06,6.26-0.33c2.52-0.46,5.24,0.19,7.89,0.22
	c1.89,0.03,3.71-0.4,5.58-0.32c0.39,0.02,1.12-0.23,1.14-0.41c0.37-3.37,3.45-4.07,5.48-5.86c1.49-1.32,0.25-3.47,0.91-5.3
	c1.35,2.1-1.24,5.53,2.43,6.59c-0.1,0.12-0.16,0.28-0.23,0.28c-3.53,0.03-0.97,4.93-4.23,5.25c-3.71,0.36-3.32,3.21-3.29,5.76
	c0.04,3.16,2.12,4.94,5.18,4.23c1.38-0.32,2.61-0.34,4.02-0.11c4.57,0.71,8.76,0.07,11.43-4.36c4.43,0.31,4.14-5.28,8.04-6.31
	c2.22-0.59,3.18-4.26,5.68-5.95c1.59-1.07,0.41-4.05,1.28-6.02c0.12-0.27,0.04-0.63,0.05-0.95c0.02-0.53,0.1-1.41,0.55-1.35
	c4.22,0.6,3.21-5.2,7.1-5.53c2.9-0.24,5.81,0.29,8.7-0.43c1.54-0.38,2.54-1,2.73-2.59c0.1-0.86,0.08-1.8,1.25-1.86
	c4.72-0.28,9.44-0.37,14.16,0.02c1.67,0.14,1.18,1.82,1.52,2.8c0.32,0.93-0.24,1.87-1.35,2.15c-0.71,0.18-1.46,0.23-2.18,0.4
	c-4.77,1.1-6.22,2.96-6.39,7.93c-0.09,2.63,0.25,5.26-0.31,7.92c-0.3,1.43,0.25,3.47,1.73,3.73c2.36,0.42,3.35,1.73,4.05,3.69
	c0.45,1.25,1.54,1.39,2.63,1.23c3.69-0.52,7.58-0.33,11.09-0.06c4.34,0.33,7.45-1.61,11.14-2.38c3.63-0.75,6.52-4.15,10.77-2.75
	c1.68,0.55,2.86-1.1,3.46-2.66c0.4-1.07,0.93-2.03,2.05-2.21c2.16-0.35,3.19-1.54,3.88-3.59c0.66-1.95,3.54-0.39,4.6-2.87
	c0.5,2.77,1.13,4.83,0.79,7.21c-0.37,2.61,2.37,4.71,5.56,4.87c1.25,0.06,2.95-0.6,3.65,0.39c0.99,1.4,1.55,3.14,2.42,4.7
	c0.51,0.9-2.06,1.59-1.87,3.22c0.19,1.56-0.23,2.06-2.04,2.01c-2.43-0.06-3.34,1.7-2.3,4.09c0.42,0.96,0.16,1.66-0.14,2.39
	c-0.81,1.97-0.55,3.86-0.09,5.88c0.52,2.27,1.79,2.9,3.87,2.78c4.05-0.24,8.11-0.43,12.17-0.62c1.18-0.06,2.35-0.04,3.44,0.97
	c-1.1,1.39-2.73,1.67-4.24,2.29c-1.88,0.77-4.69-0.37-5.57,2.58c-0.05,0.17-0.58,0.34-0.83,0.28c-4.29-1-8.57-0.01-12.84,0.13
	c-4.76,0.16-9.45-0.98-14.2-0.53c-1.67,0.16-3.35,0.18-5.01,0.37c-1.45,0.17-2.23,1.22-2.56,2.51c-0.23,0.9-0.21,1.89-0.23,2.83
	c-0.18,10.1,0.87,8.59,9.03,9.33c3.64,0.33,7.12-0.41,10.68-0.38c0.92,0.01,2.24-0.13,2.18,1.17c-0.06,1.18-1.36,0.73-2.09,0.7
	c-2.32-0.09-3.89,0.31-4.8,2.99c-0.57,1.68-3.2,0.8-4.83,1.36c-0.16,0.06-0.41-0.19-0.6-0.16c-4.22,0.82-7.68,0.14-9.1-4.6
	c-0.03-0.09-0.14-0.16-0.22-0.22c-1.68-1.29-9.65,0.86-10.19,2.93c-0.37,1.42-0.88,1.48-2.23,1.69c-3.49,0.53-6.89,0.65-10.39,0.15
	c-1.99-0.29-2.98,1.3-2.86,3.02c0.33,4.63-0.6,9.26,0.39,13.89c0.48,2.23,0.27,4.58-0.27,6.92c-1.09,4.69,0.63,6.63,5.37,6.44
	c4.35-0.18,8.75,0.04,13.04-0.2c5.41-0.3,10.81,0.11,16.21-0.1c4.38-0.17,8.94-0.34,13.39,0.16c1.86,0.21,3.67-0.23,5.58-0.01
	c2.37,0.27,3.07,0.92,2.98,3.24c-0.13,3.39,2.49,6.36,5.79,6.1c2.41-0.19,4.07-1.59,6.92,0.68c2.48,1.97,6.97-2.32,6.99-6.03
	c0-1.17-0.03-2.34,0.01-3.5c0.06-2.14-0.74-3.49-3.08-3.49c-1.97-3.31-1.01-6.81-0.68-10.26c0.73-1.44,2.05-1.36,3.31-1.16
	c2.2,0.35,4.44,0.38,6.62,0.89c1.97,0.46,3.9,0.6,5.95,0.03c2.65-0.73,5.83,0.65,5.97,2.25c0.13,1.58-2.65,3.68-5.2,3.92
	c-5.18,0.48-5.73,1.06-5.62,6.27c0.06,3.16-0.03,6.32,1.3,9.35c1.52,3.46,2.73,4.47,6.48,4.39c4.75-0.09,9.5,0.64,14.26,0.13
	c1.56-0.17,3.07,0.25,3.13,2.28c0.05,1.81-1.28,2.04-2.69,2.49c-7.72,2.44-15.52,0.5-23.28,0.58c-0.97,0.01-1.86-0.31-2.65-0.94
	c-3.89-3.1-8.08-4.43-12.92-2.25c-1.58,0.71-3.17,0.16-4.63-0.43c-3.32-1.35-6.26-0.77-8.85,1.57c-1.58,1.43-3.32,2.2-5.46,2.14
	c-2.07-0.05-3.7,0.73-4.72,2.63c-0.41,0.76-1.04,1.42-1.93,1.55c-2.23,0.33-3.32,1.6-3.5,3.82c-0.09,1.06-0.78,1.7-1.88,1.83
	c-1.04,0.12-1.8,0.63-2.1,1.66c-0.77,2.62,0.1,5.27-0.16,7.91c-0.3,3.07,1.52,4.89,4.05,6.19c0.58,0.3,1.06,0.85,1.09,1.49
	c0.15,3.29,2.17,2.67,3.89,1.65c2.82-1.67,5.83-0.2,8.71-0.85c1.15-0.26,2.02,3.01,1.16,4.64c-0.89,1.67-2.25,2.86-4.21,3.03
	c-2.39,0.2-4.06,1.45-5.67,3.13c-2,2.09-4.55,3.52-6.53,5.8c-1.36,1.57-4.36,1.26-6.63,1.77c-1.5,0.34-2.83,0.81-3.79,2.05
	c-0.65,0.24-1.31,0.21-1.97,0.05c-2.25-2.38-4.97-3.33-8.28-3.21c-3.37,0.12-6.52-0.71-8.77-3.6c-0.93-1.2-2.28-1.41-3.75-1.23
	c-5.17,0.65-10.36,0.58-15.55,0.51c-2.93-0.04-5.7,1.32-8.78,0.71c-1.27-0.25-2.47,1.52-3.01,2.94c-0.47,1.23,0.38,1.98,1.47,1.74
	c2.22-0.5,3.47,0.52,4.82,2.09c1.29,1.49,3.48,1.41,5.24,2.11c2.12,0.84,4.08,1.67,5.09,3.97c0.76,1.73,2.46,1.9,4.08,1.84
	c2.64-0.09,4.81,0.49,5.93,3.23c0.61,1.5,1.96,1.73,3.46,1.66c2.66-0.13,5.03,0.32,6.56,2.92c0.9,1.52,2.58,1.71,4.22,1.77
	c4.05,0.14,7.95,1.27,11.94,1.79c0.99,0.13,2.4,0.21,2.47,1.54c0.07,1.4-1.37,1.38-2.34,1.67c-0.91,0.27-1.86,0.48-2.82,0.46
	c-5.39-0.12-10.79,0.02-16.18-0.24c-1.84-0.09-3.14-0.38-2.62-2.75c0.52-2.38-1.23-2.72-2.9-2.6c-2.96,0.2-5.9,0.21-8.87,0
	c-2.3-0.16-4.11-0.86-5.44-2.73c-0.64-0.9-1.38-1.79-2.6-1.34c-1.95,0.72-3.74,0.25-5.57-0.38c-2.91-1-5.9,0.02-8.85-0.32
	c-0.69-0.08-1.4,0.31-1.48,0.95c-0.33,2.43-2.23,3.3-3.93,4.58c-2.79,2.1-1.58,8.96,1.66,10.33c0.81,0.34,1.61,0.64,1.67,1.67
	c0.06,1.09-0.55,2.05-1.47,2.23c-5.15,1-10.71,3.19-15.47,0.54c-3.65-2.04-6.5-5.53-11.1-5.86c-2.22-3.5-5.87-4.17-9.52-4.86
	c-1.06-0.2-1.45-1.04-1.86-1.97c-1.33-3.07-3.58-3.7-6.23-1.61c-1.67,1.31-2.77,1.99-4.22-0.42c-1-1.66-4.08-0.92-4.56,1.03
	c-0.61,2.48-1.34,4.9-2.42,7.22c-0.33,0.72-0.04,1.44,0.18,2.16c1.2,3.84-1.15,6.48-5.23,5.92c-0.97-0.13-1.79-0.62-2.67-0.98
	c-2.59-1.07-4.72-0.52-6.34,1.76c-1.48,2.08-3.22,3.12-5.93,2.71c-2.82-0.42-3.82,0.53-4.24,3.39c-0.14,0.94-0.27,1.89-0.36,2.84
	c-0.27,2.9,0.67,4.09,3.62,4.46c2.41,0.31,4.8,0.6,7.24-0.18c2.62-0.83,5.25,0.19,7.86,0.49c0.63,0.07,1.24,0.41,1.35,1.15
	c0.15,0.97-0.42,1.63-1.15,2.11c-1.44,0.96-3.18,1.11-4.78,1.64C594.52,301.72,592.81,301.76,591.11,301.45z"/>
<path class="st0" d="M711.41,162.15c0,3.62,0,7.23,0,10.85c-0.57,0.21-1.13,0.41-1.7,0.62c0-3.82,0-7.64,0-11.46
	C710.28,162.15,710.84,162.15,711.41,162.15z"/>
<path class="st0" d="M753.03,171.73c-0.07,0.21-0.14,0.41-0.21,0.62c-0.36,0-0.71,0-1.07,0c-0.07-2.97-0.14-5.95-0.21-8.92
	c0.07-0.64,0.14-1.27,0.21-1.91c0.35,0,0.7,0,1.06,0c0.87,0.65,0.92,1.6,0.97,2.55c0.11,1.86-0.03,3.72,0,5.58
	C753.74,170.42,753.62,171.16,753.03,171.73z"/>
<path class="st0" d="M756.75,184.55c1.7-0.04,3.4-0.08,5.1-0.12C759.15,187.62,758.35,187.64,756.75,184.55z"/>
<path class="st0" d="M730.1,173.62c0-1.49,0-2.97,0-4.46c0.57,0,1.14,0,1.7,0c0,1.28,0,2.56,0,3.84
	C731.23,173.21,730.66,173.41,730.1,173.62z"/>
<path class="st0" d="M744.12,161.52c0.04-0.57,0.08-1.14,0.12-1.71c1.49-0.4,2.54-0.24,2.21,1.71
	C745.67,161.52,744.89,161.52,744.12,161.52z"/>
<path class="st0" d="M766.24,161.58c4.52,4.22,10.07,3.71,15.32,2.67c8.38-1.66,16.65-3.95,24.93-6.11c5.85-1.53,10.69-5,15.45-8.54
	c8.91-6.63,18.42-12.03,29.37-14.48c2.57-0.57,5.18-1.13,8.12-0.88c-8.71,3.49-15.05,9.74-20.24,16.82
	c-9.36,12.76-22.2,17.95-37.27,19.43c-6.31,0.62-12.61,1.53-18.42,4.38c-1.64,0.8-3.14,1.76-4.39,3.07
	c-3.76,3.94-2.92,9.03,1.87,11.59c6.86,3.65,14.23,2.83,21.48,2.21c6.12-0.52,11.56-3.24,16.66-6.57c1.37-0.9,2.75-1.78,4.29-2.4
	c-7.5,11.43-18.28,17.56-31.62,19.56c-2.37,0.45-4.74,0.33-7.11,0.07c-6.47-1.42-12.91-2.95-19.41-4.21
	c-3.71-0.72-7.51-0.91-11.23,0.21c-9.29,1.49-17.55,4.81-22.74,13.25c-1.56,2.54-2.95,5.25-1.19,8.46c2.01,3.67,5.06,5.24,9.09,5.08
	c3.25-0.13,6.14-1.4,8.94-2.99c3.39-1.93,6.7-4.1,10.59-4.91c2.25-0.47,4.57-0.91,6.85,0.84c-6.85-0.46-10.93,3.29-13.96,8.5
	c-6.3,10.84-15.74,17.41-27.69,20.65c-0.71,0.19-1.47,0.2-2.2,0.29c-1.09,0.33-2.18,0.48-3.24-0.1c-0.06-1.48,0.43-2.41,2.11-2.53
	c1.36-0.1,2.7-0.42,4.04-0.69c2.4-0.48,5.1-0.52,5.7-3.74c4.31-1.15,5.9-6.78,11.25-6.53c2.65,0.12,3.67-2.68,2.75-6.5
	c-1.38,1.03-2.75,1.77-4.41,0.57c-0.95-0.69-2.03-0.13-3,0.35c-1.13,0.56-2.26,1.06-3.53,1.37c-2.08,0.5-3.25,0.38-2.44-2.17
	c0.48-1.51-0.23-2.21-1.65-2.38c-1.31-0.16-1.79-1.18-2.58-2.05c-2.47-2.73-0.51-5.92-1.21-8.8c-0.27-1.1-0.05-2.32,0.01-3.48
	c0.14-2.78,2.77-2.04,4.08-3.05c1.13-0.87-0.35-4.29,2.13-4.63c2.46-0.33,3.76-1.35,4.66-3.45c0.37-0.86,1.54-1.14,2.19-1.04
	c3.86,0.57,6.58-1.65,9.31-3.69c2.18-1.62,4.39-1.28,6.57-0.47c2.22,0.82,4.16,1.25,6.55,0.13c3.59-1.69,9.11-0.19,11.7,2.71
	c0.44,0.49,0.85,0.98,1.53,1.01c3.58,0.17,7.15,0.15,10.74,0.56c4.4,0.51,8.84,0.13,13.18-1.1c1.07-0.3,2.46,0.18,2.45-1.64
	c-0.01-1.84-1.39-1.74-2.48-1.54c-5.07,0.9-10.13-0.57-15.15,0.04c-3.22,0.39-5.13-1.52-5.97-3.66c-1.99-5.05-2.42-10.44-1.28-15.86
	c0.43-2.07,1.48-2.85,3.58-2.43c1.02,0.21,2.22,0.45,3.12,0.11c1.59-0.6,4.26-1.38,3.66-3.14c-0.55-1.63-3.33-2.21-5.23-1.3
	c-1.5,0.71-2.71,0.59-4.22,0.32c-3.62-0.65-7.29-1.01-10.94-1.49"/>
<path class="st0" d="M596.22,301.48c1.23-1.03,2.61-1.7,4.19-2.07c0.64-0.15,1.4-0.76,1.17-1.64c-0.21-0.8-1.04-0.55-1.63-0.58
	c-3.11-0.12-6.1-0.86-9.35,0.29c-2.04,0.72-4.8-0.07-7.09-0.71c-2.81-0.79-3.42-4.16-1.86-9.55c0.65-2.25,2.51-3.39,4.7-2.65
	c3.39,1.14,4.89-0.53,6.05-3.25c0.65-1.53,5.31-2.4,6.83-1.08c2.48,2.14,4.7,0.91,6.94-0.22c1.25-0.63,1.05-1.78,0.33-2.71
	c-1.32-1.7-1.65-3.1-0.01-5.01c1-1.16,1.6-3.14,1.5-4.69c-0.19-2.91,1.36-3.48,3.6-3.53c1.98-0.05,4.44-0.57,3.3,3.08
	c2.44-0.6,2.86-3.74,5.58-3.13c2.15,0.49,4.65,0.34,4.43,3.65c-0.06,0.87,0.44,1.58,1.31,1.4c2.59-0.55,4.47,1.81,6.99,1.59
	c0.45-0.04,1.35,0.65,1.4,1.08c0.4,3.2,3.15,2.9,5.04,2.98c2.12,0.09,3.55,0.89,4.35,2.51c1.85,3.72,5.27,3.82,8.45,3.43
	c2.4-0.29,4.78-0.67,7.22-0.74c0.8-0.02,1.62-0.42,2.38-0.75c0.61-0.27,1.03-0.81,0.91-1.52c-0.14-0.82-0.84-0.87-1.48-0.85
	c-2.91,0.11-3.62-1.59-3.49-4.09c0.08-1.48-0.02-2.97,0.03-4.45c0.03-0.72-0.04-1.7,0.37-2.12c2.02-2.04,5.36-2.99,5.36-6.69
	c0-0.15,0.79-0.52,1.1-0.42c3.96,1.24,8.42-1.28,12.16,1.61c0.14,0.11,0.48,0.18,0.6,0.09c3.53-2.47,4.94,0.32,7.19,2.37
	c2.27,2.07,5.77,0.92,8.72,1.3c0.91,0.12,1.87-0.31,2.81-0.33c4.92-0.11,5.46,0.61,3.9,5.48c7.72-0.35,15.4,1.08,22.99-0.6
	c0.04-0.28,0.07-0.57,0.11-0.85c-4.45-0.71-8.88-1.61-13.35-2.06c-2.74-0.28-5.1-0.3-6.41-3.46c-0.74-1.78-3.17-1.55-4.82-1.27
	c-2.4,0.41-3.94,0.01-4.57-2.52c-0.56-2.23-2.22-2.5-4.2-2.39c-2.81,0.15-5.04,0.04-6.38-3.55c-0.96-2.56-4.79-2.58-7.48-3.41
	c-0.76-0.23-1.72,0.15-2.14-0.93c-0.75-1.91-1.55-3.36-4.05-1.8c-1.09,0.68-2.41-0.33-2.74-1.5c-0.7-2.48,1.85-3.29,2.88-4.89
	c0.62-0.96,1.59-1.46,2.71-0.61c0.61,0.46,1.28,0.99,2.02,0.72c7.02-2.58,14.46-0.04,21.55-1.79c1.36-0.34,2.84-0.02,3.68,1.3
	c2.1,3.31,5.35,3.75,8.83,3.74c3.21-0.01,6.51-0.14,7.76,3.84c-1.29,0.49-2.6,0.36-3.91,0.1c-5.41-0.48-10.51-2.28-15.7-3.69
	c-9.65-2.62-17.66-1.64-25.52,0.79c8.3,0.62,15.3,4.48,22.31,8.32c5.74,3.15,11.28,6.63,17.28,9.32
	c11.67,5.21,23.84,4.38,32.43-7.98c-0.65,4.38-2.84,7.13-5.53,9.43c-7.03,6-15.54,8.28-24.51,9.28c-2.16,0.35-4.31,0.32-6.47,0.02
	c-4.7-0.31-8.99-2.08-13.34-3.68c-7.28-2.67-14.38-6.08-22.52-5.43c-2.33,0.19-4.3,0.89-6.15,2.11c-1.07,0.7-2.06,1.63-1.83,3.09
	c0.24,1.56,1.48,2.13,2.82,2.66c1.76,0.7,3.56,0.28,5.33,0.46c2.2,0.78,1.07,1.96,0.22,2.86c-1.72,1.82-3.52,3.56-5.24,5.38
	c-0.84,0.47-1.68,0.93-2.53,1.4c-1.48-0.21-2.65,0.53-3.84,1.22c-5.86,1.18-11.64,1.27-17.2-1.35c-2.4-2.26-5.15-3.71-8.53-3.69
	c-4.26-1.64-8.03-4.27-12.24-6.02c-2.69-1.11-5.43-1.88-8.35-1.25c-1.93,0.42-3.93,1.23-3.86,3.53c0.06,2.09,2.1,2.43,3.77,2.74
	c4.47,0.84,9.06,0.99,13.43,2.39c2.67,0.86,5.15,1.98,6.11,4.96c2.46,4.34,6.45,6.83,10.72,9.06c4.35,2.27,9.05,1.52,13.62,1.98
	c-8.96,1.99-17.5,0.96-25.79-3.12c-5.47-2.69-10.67-6.06-16.7-7.5c-2.15-0.51-4.35-0.83-6.53-1.24c-2.16-0.31-4.32-0.34-6.48,0.01
	c-5.81,0.49-11.23,1.95-15.42,6.34c-1,1.05-2.42,2.17-1.55,3.78c0.78,1.45,2.45,0.98,3.77,0.79c2.71-0.38,5.39-1.07,8.11-1.34
	c4.37-0.44,8.34,0.61,11.71,3.65c3.31,2.97,7.24,3.13,11.31,1.99c1.49-0.41,2.93-1.01,4.44-1.54c-2.23,3.09-6.57,5.47-11.43,6.29
	c-2.16,0.33-4.32,0.38-6.48-0.03C602.97,302.9,599.6,302.19,596.22,301.48z"/>
<path class="st0" d="M441.2,266.68c-0.79-0.65-0.36-1.58-0.55-2.36c-0.13-2.6,2.33-2.97,3.68-4.31c0.29-0.14,0.6-0.23,0.93-0.27
	c1-0.05,1.98-0.18,2.96-0.36c2.32-0.05,3.08-1.37,3.04-3.53c-0.05-3.07-0.03-6.15,0-9.22c0.01-1.06,0-2.12,0.32-3.15
	c0.24-0.74,0.61-1.36,1.49-1.42c1.07-0.07,1.5,0.65,1.74,1.51c0.34,1.24,0.26,2.52,0.27,3.79c0.03,3.18-0.08,6.36,0.06,9.53
	c0.04,0.93,0.1,2.04,1.46,2.03c1.31-0.01,1.49-1.05,1.55-2.01c0.2-3.17,0.05-6.36,0.09-9.53c0.01-0.74-0.03-1.49,0.06-2.22
	c0.18-1.46,0.12-3.25,2.21-3.23c2.09,0.01,2.09,1.81,2.16,3.26c0.16,3.6-0.02,7.21,0.1,10.81c0.04,1.18-0.27,2.94,1.6,2.88
	c1.82-0.06,1.45-1.81,1.49-2.99c0.1-3.39,0-6.78,0.05-10.17c0.02-1.37-0.09-2.79,1.01-3.88c0.39-0.01,0.78-0.02,1.16-0.03
	c1.37,1.52,0.88,3.39,0.95,5.14c0.07,1.79,0.06,3.59,0.01,5.38c-0.11,3.46,0.18,6.64,4.39,7.61c0.34,0.08,0.32,0.49,0.32,0.8
	c-5.95,4.91-11.9,9.81-17.85,14.72c-0.38,0.27-0.76,0.54-1.14,0.82c-2.31,0.87-3.55,3.54-6.27,3.73c-3.64,1.84-4.72,1.3-5.3-2.76
	c-0.26-1.77-0.43-3.57,0.1-5.33C444.02,269.6,443.51,267.79,441.2,266.68z"/>
<path class="st0" d="M519.72,296c-5.2-1.06-8.3-4.61-10.86-8.94c-0.97-1.65,0.29-1.68,1.07-2.16c5.1-3.17,10.21-6.32,15.64-9.68
	c-2.31-2.16-4.45-4.16-6.58-6.15c-8.03-7.51-16.06-15.03-24.09-22.54c-0.78-0.73-1.73-1.34-0.31-2.39c1.95-1.43,1.73-3.45,1.36-5.48
	c2.02,0.68,2.63,1.97,1.72,3.93c-0.9,1.94-0.43,2.8,1.82,2.43c1.08-0.18,1.95,0.07,1.6,1.52c-0.54,2.27,0.42,3.39,2.71,3.54
	c0.6,0.04,1.55,0.22,1.72,0.6c1.02,2.37,2.24,4.36,5.24,4.23c0.02,4.02,3.58,4.74,5.84,6.84c1.21,1.12,1.78,3.07,3.81,3.64
	c1.06,0.29,1.23,1.3,1.28,2.32c0.1,1.77,1.12,2.69,2.87,2.7c1.62,0,2.39,0.38,2.47,2.34c0.11,2.41,1.44,3.95,4.35,3.72
	c3.49-0.28,5.49,1.58,5.58,4.7c-2.03-1.17-4.39-1.17-6.59-1.75c-2.38-0.63-6.48,2.69-7.46,5.77c-0.95,2.99,0.55,4.77,3.04,6.1
	c3.19,1.69,6.93,1.85,10.07,3.69c2.77,1.63,3.11,1.99,3.35,4.81c-3.35-4.19-8.19-3.19-12.57-3.76
	C524.44,296.3,522.08,296.37,519.72,296z"/>
<path class="st0" d="M666.28,280.54c0.29-2.79,2.85-3.82,4.43-5.58c0.8-0.89,1.96-1.41,0.59-2.66c2.36-0.77,4.68-1.65,7.1-3.52
	C675.7,274.67,671.8,278.46,666.28,280.54z"/>
<path class="st0" d="M637.84,279.88c-1.18-0.8-2.35-1.6-3.53-2.4c3.57-0.05,6.7,0.76,8.4,4.33
	C641.09,281.17,639.46,280.52,637.84,279.88z"/>
<path class="st0" d="M659.91,283.16c1.04-1.16,1.98-2.64,3.84-1.22C662.59,282.7,661.35,283.24,659.91,283.16z"/>
<path class="st0" d="M758.2,172.9c-0.02-0.82-0.05-1.65-0.07-2.47c0.78,0,1.56,0,2.33,0C760.87,172.32,760.28,173.3,758.2,172.9z"/>
<path class="st0" d="M828.68,84.6c-0.15,1.52,0.74,2.84-0.72,3.68c-0.19,0.11-0.9-0.21-0.99-0.46
	C826.55,86.56,827.09,85.63,828.68,84.6z"/>
<path class="st0" d="M359.22,324.56c-0.64-0.21-1.27-0.42-1.91-0.64c0.04-0.09,0.06-0.21,0.13-0.28c0.7-0.73,0.3-3.05,2.26-1.88
	C361.32,322.74,359.46,323.62,359.22,324.56z"/>
<path class="st0" d="M194.55,323.41c0.42-0.64,0.85-1.27,1.27-1.91c0.06,0.3,0.11,0.61,0.18,0.91c0.17,0.71,1.58,1.29,0.51,2.05
	C195.59,325.13,195.23,323.75,194.55,323.41z"/>
<path class="st0" d="M295.19,365.94c-6.76,3.24-13.45,6.63-20.3,9.68c-9.62,4.29-19.28,8.53-28.84,12.93
	c-17.76,8.17-35.78,15.71-53.89,23.04c-15.46,6.25-31.08,12.07-46.9,17.34c-0.5,0.17-1.04,0.2-1.55,0.3
	c-0.67,0.29-0.79-0.04-0.71-0.62c27.01-10.82,54.28-20.98,81-32.52c23.35-10.08,46.67-20.24,69.6-31.25
	c0.27-0.13,0.63-0.07,0.94-0.1C295.1,364.96,295.38,365.32,295.19,365.94z"/>
<path class="st0" d="M295.19,365.94c-0.22-0.4-0.43-0.79-0.65-1.19c11.57-5.74,23.17-11.42,34.68-17.25
	c4.68-2.37,9.5-4.49,13.89-7.41c0.84-1.53,2.54-1.69,3.86-2.45c0.35-0.22,0.71-0.44,1.07-0.65c1.22-0.69,2.49-1.26,3.91-1.37
	c5.59-2.86,11.18-5.72,16.77-8.59c0.1,0.18,0.21,0.36,0.31,0.55c-5.95,3.48-11.9,6.95-17.84,10.43c-2.11,2.15-4.82,3.08-7.64,3.81
	c-14.59,7.35-29.18,14.71-43.79,22.05C298.28,364.61,296.72,365.25,295.19,365.94z"/>
<path class="st0" d="M143,428.61c0.24,0.21,0.47,0.41,0.71,0.62c-2.28,1.32-4.84,1.79-7.54,1.96
	C138.44,430.33,140.72,429.47,143,428.61z"/>
<path class="st0" d="M152.4,336.03c3.29-0.55,5.99-2.53,9.03-3.68c6.85-3.06,13.71-6.12,20.56-9.18c0.1,0.21,0.19,0.42,0.29,0.63
	c-7.34,3.52-14.68,7.04-22.02,10.56c-0.92,1.17-2.27,1.64-3.54,2.24c-0.49,0.29-0.97,0.59-1.47,0.86c-1.27,0.73-2.59,1.25-4.09,1.11
	c-16.09,7.34-31.78,15.51-47.6,23.41c-1.51,0.75-3.02,1.49-4.53,2.24c-0.66,0.3-0.74-0.02-0.6-0.57
	c16.37-8.95,33.1-17.2,49.98-25.15C149.83,337.83,151.34,337.28,152.4,336.03z"/>
<path class="st0" d="M151.17,338.57c1.31-0.58,2.62-1.17,3.92-1.75c1.1,0.89,1.15,0.08,1.2-0.73c1.33-0.58,2.66-1.15,3.99-1.73
	c0,2,0.01,3.99-0.01,5.99c-0.01,0.6,0.16,1.39-0.73,1.48c-1.59,0.16-3.01-0.79-4.86-0.08C152.36,342.64,152.27,339.76,151.17,338.57
	z"/>
<path class="st0" d="M98.44,363.65c0.2,0.19,0.4,0.38,0.6,0.57c-2.28,1.74-5.01,2.62-7.5,3.96c-0.36,0.2-0.71,0.5-1.26,0.04
	C92.92,366.5,95.55,364.84,98.44,363.65z"/>
<path class="st0" d="M188.38,320.81c1.12-0.93,2.27-1.74,4.08-1.84C191.13,320.17,189.85,320.71,188.38,320.81z"/>
<path class="st0" d="M465.61,213.74c2.1,2.87,6.79,2.86,7.7,7.17c0.36,1.69,2.27,1.68,3.71,1.68c1.64,0,1.31-1.38,1.33-2.37
	c0.04-3.34,3.94-2.45,4.71-4.04c1-2.08,0.71-4.68,4.1-4.36c1.02,0.1,1.43-0.52,2.12-1.32c2.16-2.51,4.75-4.59,6.32-7.68
	c0.46-0.91,2.47-1.74,3.86-0.16c0.42,0.48,0.92,0.84,1.67,0.63c5.75-1.58,11.65-1.67,17.55-1.65c4.01,0.02,6.56,4.29,4.7,7.85
	c-0.32,0.61-0.83,1.13-1.49,0.94c-2.78-0.81-2.66,1.14-2.75,2.84c-0.08,1.49-0.49,3.15-1.98,3.25c-4.62,0.32-3.31,4.03-3.46,6.33
	c-0.23,3.56-0.32,4.16-3.67,3.53c-1.81-0.34-1.78,0.8-1.69,1.81c0.23,2.54-0.92,3.91-3.35,3.97c-1.65,0.04-1.9,1.17-2.18,2.24
	c-0.41,1.57-1.21,2.67-3.46,3.24c4.52,1.24,4.04,4.8,4.41,7.74c0.22,1.77,0.87,2.77,2.44,3.24c0.96,0.29,1.89,0.59,2.17,1.63
	c0.47,1.82,1.54,2.43,3.42,2.48c1.66,0.04,2.18,1.68,2.18,3.05c0.01,1.88,0.58,2.82,2.57,2.56c0.31-0.04,0.88-0.04,0.91,0.07
	c1.07,3.23,4.82,4.27,6.03,7.21c0.52,1.27,0.52,2.16,2.21,2.35c2.14,0.25,3.79,1.37,3.66,3.96c-0.07,1.47,0.79,1.88,2.06,1.52
	c3.4-0.95,5.98,0.63,7.49,3.26c1.28,2.23,2.82,2.32,4.68,1.78c3.29-0.95,5.4-0.09,6.17,3.4c0.07,0.3,0.18,0.82,0.33,0.84
	c5.55,0.76,3.57,5.6,4.67,8.72c0.33,0.93,0.25,1.89,1.58,1.9c2.28,0.02,3.3,1.66,3.45,3.48c0.18,2.13,1.23,2.33,2.91,2.28
	c1.85-0.06,3.84-0.27,4.87,1.89c-2.64,0.52-6.17-0.48-7.11-1.61c-2.06-2.47-3.97-4.75-6.73-6.53c-0.87-0.56-0.76-2.97-0.74-4.52
	c0.03-2.43-0.29-4.21-3.38-3.99c-1.15,0.08-1.12-1.03-1.16-1.89c-0.11-2.71-1.7-3.59-4.07-2.91c-2.79,0.8-4.6,0.38-6.42-2.28
	c-1.26-1.84-3.46-3.68-6.51-2.6c-1.86,0.66-3.25-0.43-3.3-2.33c-0.06-2.23-0.69-3.41-3.12-3.24c-1.46,0.1-2.08-0.84-2.06-2.22
	c0.05-3.35-3.67-2.03-4.65-3.69c-0.97-1.64-0.23-4.41-3.45-4.26c-1.45,0.07-2.05-0.81-2.1-2.21c-0.03-0.72-0.16-2.01-0.41-2.05
	c-3.56-0.59-4.46-4.67-7.58-5.68c-1.57-0.51-2.33-1.26-2.21-2.92c0.13-1.79-0.84-2.5-2.54-2.4c-0.14-0.3-0.1-0.59,0.11-0.84
	c0.34-0.4,0.85-0.5,1.29-0.72c-0.52,0.1-1.02,0.09-1.4-0.35c-1.04-2.69-2.4-5.14,1.64-7.05c1.18-0.56,1.39-3.25,3.91-3.57
	c1.32-0.17,2.24-1.79,2.12-3.53c-0.06-0.89-0.34-2.23,0.98-2.33c4.62-0.35,3.26-4.24,4.01-6.76c0.44-1.47-0.3-3.23,2.52-2.54
	c1.49,0.36,2.73-0.88,2.66-2.77c-0.07-1.87,0.7-3.51,2.56-3.82c1.95-0.33,2.64-1.36,2.42-2.99c-0.22-1.6-1.02-3.43-2.84-3.36
	c-6.09,0.21-12.16-0.75-18.3,0.71c-3.06,0.73-5.93-0.07-7.43,4.04c-0.61,1.67-4.26,1.99-5.01,4.74c-0.16,0.58-1.07,0.61-1.71,0.58
	c-1.76-0.1-2.16,0.87-2.99,2.38c-1.62,2.94-4.72,4.79-6.78,7.65c-1.35,1.86-4.95-0.11-6.04-2.78c-0.31-0.78-0.64-1.95-1.49-1.9
	C466.79,218.64,466.76,215.67,465.61,213.74z"/>
<path class="st0" d="M498.1,146.87c-0.66,5.29,1.79,10.69-0.53,15.93c-0.12,0.28,0.01,0.73-0.17,0.92
	c-2.14,2.19-4.21,4.43-5.89,7.02c-0.2,0.3-1.07,0.44-1.48,0.28c-3.6-1.41-7.14-0.49-10.74,0.01c-2.74,0.38-5.27-0.19-6.49-3.68
	c-0.76,4.17,2.15,8.44-2.1,11.37c1.92-3.72,0.26-7.84,1.24-11.67c0.24-0.94,0.17-2.06,1.38-2.16c1.54-0.12,1.13,1.2,1.19,2.05
	c0.16,2.14,1.4,2.86,3.39,2.88c4.09,0.04,8.13-1.33,12.25-0.4c0.26,0.06,0.79-0.11,0.85-0.3c1.53-4.33,7.44-6.06,6.6-12
	C497.14,153.81,496.75,150.22,498.1,146.87z"/>
<path class="st0" d="M466.88,183.81c2.37,2.85,1.81,6.21-1.43,7.3c-1.58,0.53-2.49,0.99-2.55,2.86c-0.05,1.39-1.64,1.72-2.71,2.34
	c1.78,2.87,3.1,5.56,2.52,9.29c-0.42,2.73-0.69,6.38,2.9,8.14c-2.65,0-3.44-1.46-3.93-3.94c-0.6-3.02,0.11-6.02-0.44-9
	c-0.31-1.65-0.94-2.77-2.71-2.99c-0.75-0.1-1.57-0.27-1.53-1.24c0.03-0.75,0.82-1.03,1.38-1.1c2.21-0.27,3.54-1.23,3.46-3.65
	c-0.02-0.67,0.41-1.42,1.04-1.43C467.81,190.33,466.81,186.76,466.88,183.81z"/>
<path class="st0" d="M512.11,122.67c-3.02,2.02-2.76,6.81-7.28,7.89c-2.42,0.58-1.97,4.04-2.05,6.1c-0.07,1.9-1.12,3.97,0.26,6.04
	c0.69,1.04-0.38,2.34-1.81,2.19c-1.7-0.18-2.41,0.82-3.13,1.98c-0.15-2.06-0.99-4.23,2.13-5.17c1.19-0.36,2.01-2.11,1.57-3.5
	c-0.5-1.56-0.01-2.94,0.23-4.33c0.41-2.35,0.09-5.52,4.11-5.12c0.39,0.04,1.24-0.62,1.2-0.85
	C506.73,124.11,510,123.92,512.11,122.67z"/>
<path class="st0" d="M570.72,94.51c0.03,1.58,0.09,3.42-1.6,3.43c-1.27,0.01-1.6-1.8-1.54-3.08c0.07-1.39,0.41-3.15,1.99-3.15
	C571.59,91.69,570.31,93.67,570.72,94.51z"/>
<path class="st0" d="M526.77,123.94c-0.65-0.03-1.5-0.21-1.57-0.79c-0.45-3.98-3.25-3.96-6.2-3.83c-0.59,0.02-1.19-0.3-1.79-0.47
	c2.02-1.3,4.25-0.42,6.38-0.58c0.91-0.07,1.14,0.66,1.3,1.45C525.19,121.25,525.79,122.69,526.77,123.94z"/>
<path class="st0" d="M554.41,117.52c-1.12,0-1.57-0.51-1.46-1.38c0.15-1.18,0.48-2.32,1.99-2.35c0.67-0.01,1.77-0.16,1.44,0.98
	C556.05,115.89,555.78,117.27,554.41,117.52z"/>
<path class="st0" d="M560.15,108.33c0.8-0.13,0.96,0.39,0.99,0.93c0.06,1.09,0.02,2.21-1.38,2.44c-0.83,0.14-1.08-0.48-1.09-1.19
	C558.66,109.43,559.31,108.79,560.15,108.33z"/>
<path class="st0" d="M565.56,104.58c-0.12,0.66-0.38,1.32-1.14,1.24c-0.88-0.09-1.07-0.92-1.13-1.64c-0.05-0.59,0.41-1.02,0.96-1.04
	C565.16,103.11,565.48,103.76,565.56,104.58z"/>
<path class="st0" d="M598.74,86.14c0.63-1.52,1.22-2.3,2.46-2.16c0.48,0.05,0.73,0.51,0.58,0.91
	C601.32,86.19,600.07,85.59,598.74,86.14z"/>
<path class="st0" d="M500.01,241.77c0.47,0.08,1.31,0.08,1.35,0.26c0.24,1.02-1.12,0.89-1.35,1.65c-0.48-0.08-1.34-0.11-1.36-0.25
	C498.51,242.47,499.36,242.17,500.01,241.77z"/>
<path class="st0" d="M501.06,284.53c-10.17-4.78-19.68-10.77-29.65-15.91c-0.38-0.19-0.84-0.35-0.74-0.85
	c0.04-0.23,0.41-0.4,0.63-0.6c1.03-0.56,9.17-7.43,9.47-8.31c3.78-3.95,7.56-7.9,11.46-11.97c9.43,8.97,18.82,17.95,28.27,26.85
	c1.13,1.06,1.05,1.54-0.23,2.21c-2.51,1.32-4.99,2.69-7.48,4.05c-0.05-0.19-1.13-0.46-0.96-0.83c0.13-0.3-1.33-2.32-0.47-2.94
	c1.44-1.38,6.14-0.38,5.81-0.38c-0.2,0-1.44,0.59-2.13,0.93c-1.45,0.68-2.16,1.01-3.9,2.02c-0.28,0.16-2.91,1.22-3.2,1.39
	c-1.02,0.53-1.69,1.33-3.45,2.35C503.29,283.04,502.57,284.85,501.06,284.53z"/>
<path class="st0" d="M513.79,206.54c1.5,0.45,0.72,1.13,0.45,1.45c-2.47,3.06-5.08,6.56-7.59,9.6c-4.31,5.08-8.84,10.75-13.08,15.88
	c-0.92,1.12-1.81,1.85-3.3,2.13c-5.67,1.09-11.31,2.34-16.95,3.53c-0.84-0.93-2.34-0.15-3.13-1.21c5.97-6.92,9.72-9.1,16.2-15.51
	c0.96-0.96,7.06-7.09,8.31-7.92c3.32-2.71,5.85-4.02,10.56-4.92C510.73,207.4,513.32,206.53,513.79,206.54z"/>
<path class="st0" d="M437.72,237.79c-2.21-6.6-4.33-13.23-6.69-19.77c-0.6-1.66-0.06-1.99,1.26-2.39
	c6.05-1.82,12.08-3.68,18.12-5.56c1.11-0.35,2.01-0.2,2.9,0.61c6.8,6.23,13.59,12.46,20.47,18.59c1.21,1.08,0.99,1.56,0.04,2.62
	c-2.86,3.2-6.28,4.26-10.59,4.44c-7.07,0.28-14.1,1.41-21.14,2.19C440.72,237.78,438.94,239.47,437.72,237.79z"/>
<path class="st0" d="M466.94,241.85c-0.02,5.3-0.11,10.6-0.02,15.89c0.03,1.89-0.43,2.59-2.46,2.57c-1.98-0.02-2.81-0.44-2.73-2.62
	c0.17-4.23,0.06-8.48,0.02-12.71c-0.01-0.98,0.4-2.42-1.18-2.47c-1.9-0.06-1.31,1.57-1.32,2.6c-0.06,4.13-0.1,8.27,0.01,12.4
	c0.05,1.89-0.24,2.87-2.52,2.82c-2.09-0.04-2.72-0.63-2.65-2.7c0.15-4.23,0.06-8.48,0.02-12.71c-0.01-0.88,0.39-2.29-0.9-2.34
	c-1.41-0.06-0.95,1.39-0.96,2.23c-0.06,3.5-0.03,6.99-0.03,10.49c0,5,0,5-5.03,4.93c-0.74-0.68-0.91-1.57-0.93-2.51
	c-0.09-4.43,0-8.86-0.05-13.29c-0.01-1.25,0.19-2.58-1.04-3.47c-0.41-0.33-0.74-0.71-0.86-1.23c3.25-0.39,6.49-0.78,9.74-1.17
	c1.33-0.16,2.66-0.32,3.99-0.47c1.1,1.27,2.12,0.58,3.13-0.14c2-0.72,4.07-0.75,6.38-0.75c-0.59,2.16-3.17,2.59-3.53,4.66
	C465.03,242.78,465.99,241.39,466.94,241.85z"/>
<path class="st0" d="M473.77,260.75c-5.28-1.24-5.6-1.68-5.62-7.62c-0.01-3.77-0.03-7.54-0.05-11.32c1.94-0.43,3.87-0.85,5.81-1.28
	c0.68,4.24-0.09,8.56,0.62,12.81c0.49-2.87,0.27-5.76,0.36-8.64c0.04-1.46-0.18-2.98,0.9-4.22c1.72-0.41,3.43-0.82,5.15-1.23
	c1.32,1.65,0.91,3.62,0.9,5.47c-0.02,3.04,0.33,6.1-0.3,9.13C478.95,256.16,476.36,258.46,473.77,260.75z"/>
<path class="st0" d="M444.31,239.71c0.29,0.21,0.59,0.41,0.88,0.62c1.24,2.13,0.92,4.49,0.95,6.78c0.04,3.47,0.08,6.94-0.03,10.41
	c-0.02,1-0.14,1.97-0.95,2.69c-0.2,0.02-0.4,0.06-0.59,0.13c-2.15,1.38-3.93-0.16-5.84-0.73c-2.02-2.61-3.71-5.48-6.2-7.72
	c0.23-2.12,1.85-3.18,3.29-4.4c1.16-0.98,2.82-1.51,3.03-3.55c-1,2.28-2.76,2.68-4.84,2.23c-2.03-0.44-2.16-2.04-2.18-3.68
	c-0.04-0.28-0.06-0.55-0.09-0.83C435.93,241.01,440.12,240.36,444.31,239.71z"/>
<path class="st0" d="M481.54,253.87c-1.38-2.56-0.42-5.3-0.61-7.95c-0.16-2.2-0.01-4.43,0.01-6.65c3.04-0.85,6.07-1.78,9.14-2.52
	c1.06-0.25,2.44-1.68,3.3,0.11c0.85,1.77,1.79,3.75-0.02,5.53C489.45,246.24,485.48,250.04,481.54,253.87z"/>
<path class="st0" d="M441.2,266.68c2.95,0.13,4.04,1.5,3.19,4.51c-0.48,1.67-0.6,3.25-0.47,4.95c0.32,4.08,0.72,4.47,4.59,3.88
	c-1.69,2.39-4.6,3.33-6.52,5.47c-0.25,0.28-1.08,0.33-1.46,0.13c-0.7-0.37,0.04-0.86,0.15-1.28
	C442.13,278.48,442.73,272.61,441.2,266.68z"/>
<path class="st0" d="M475.79,240.49c0,4.24,0.03,8.48,0,12.71c-0.01,0.97,0.41,2.4-1.16,2.49c-1.61,0.1-1.43-1.32-1.35-2.31
	c0.34-4.28-0.83-8.63,0.64-12.85C474.54,240.52,475.17,240.51,475.79,240.49z"/>
<path class="st0" d="M431.7,250.79c-1.68-1.14-3.37-2.28-5.05-3.41c-0.87-1.63-1.18-3.25,0.02-4.87c1.69-0.28,3.38-0.56,5.07-0.84
	l0.22,0.21c0.13,1.85,0.64,3.66,0.8,5.5C432.86,248.59,432.85,249.9,431.7,250.79z"/>
<path class="st0" d="M431.7,250.79c0.09-2.97,0.17-5.94,0.26-8.91c0.46,0,0.86,0.12,0.78,0.68c-0.16,1.2-0.91,2.79,1.2,2.8
	c1.38,0,3.65,1.21,3.7-1.84c0.01-0.9,0.77-1.2,1.62-1.04c1.04,0.2,0.86,1.06,0.85,1.76c-0.02,1.23-0.95,1.81-1.85,2.38
	c-2.22,1.42-4.23,3.07-5.72,5.27C432.26,251.53,431.98,251.16,431.7,250.79z"/>
<path class="st0" d="M511.75,276.78c0.22,0.19,0.82,3.03,1.04,3.22c-2.55,1.61-5.14,3.16-7.62,4.86c-1.99,1.36-3.57,0.99-5.2-1.91
	c0.42-0.51,0.44-0.54,0.86-1.05c5.28,1.82,4.8-2.31,7.71-3.15C510.25,277.58,510.38,277.28,511.75,276.78z"/>
<path class="st0" d="M438.73,259.62c0.63-0.01,1.03-1.37,1.39-0.75c1.12,1.92,2.93,1.14,4.44,1.47c-0.84,1.78-3.3,1.97-3.91,3.98
	C439.79,262.84,439.04,261.32,438.73,259.62z"/>
<path class="st0" d="M424.78,246.28c-2.15-0.69-4.3-1.39-6.45-2.08c0.02-0.14,0.03-0.29,0.05-0.43c2.12-0.27,4.24-0.54,6.36-0.81
	C425.79,244.05,425.77,245.16,424.78,246.28z"/>
<path class="st0" d="M424.78,246.28c-0.01-1.11-0.03-2.21-0.04-3.32c0.52-0.68,1.24-0.52,1.94-0.45c-0.01,1.62-0.01,3.24-0.02,4.87
	C425.95,247.15,425.22,246.95,424.78,246.28z"/>
<path class="st0" d="M470.19,237.92c1.15,0.12,2.71-0.81,3.13,1.21c-1.54,0.27-3.08,0.55-4.89,0.87
	C468.68,238.77,469.34,238.27,470.19,237.92z"/>
<path class="st0" d="M437.72,237.79c1.45,0.3,3.04-0.25,4.37,0.74C440.59,238.57,438.73,240.71,437.72,237.79z"/>
<path class="st0" d="M461.16,237.92c-0.58,0.94-1.11,2.16-2.37,2.03c-0.63-0.06-0.71-1.16-0.76-1.89
	C459.08,238.02,460.12,237.97,461.16,237.92z"/>
<path class="st0" d="M65.88,405.48c-1.07-0.01-2.14-0.01-3.21-0.02c-2.43-2.15-5.5-1.71-7.98-0.93c-2.38,0.74-3.66-0.54-5.13-1.38
	c-1.36-0.78-0.4-2.18,0.04-3.38c0.82-2.25,1.5-4.01,4.3-5.11c2.32-0.91,2.5-5.33,6.13-5.62c0.16-4.19,4.11-3.55,6.4-5.03
	c0.25,4.55,1.27,5.67,5.61,6.3c0.51,0.07,1.4,0.22,1.43,0.44c0.56,3.86,5.17,4.25,6.36,7.47c0.38,1.02,1.2,1.38,1.87,2.02
	c0.84,0.8,1.6,1.82,1.1,3.07c-0.43,1.07-1.51,0.98-2.47,0.99c-4.13,0.01-8.26,0.04-12.39,0.02C67,404.31,66.33,404.65,65.88,405.48z
	"/>
<path class="st0" d="M546.31,180.77c-2.84,0-5.66-0.48-8.49,0.29c-1.57,0.43-3.23-0.66-3.04-1.94c0.37-2.54-2.05-2.76-2.59-4.01
	c-0.93-2.18-3.31-3.82-2.59-6.9c0.47-2-0.4-4.3,0.34-6.45c0.17-0.48,0.29-1.45,0.63-1.25c2.96,1.75,3.62-1.26,4.82-2.48
	c2.37-2.39,5.09-1.52,7.81-1.91c3.21-0.46,4.14,1.17,5.34,3.16c0.26,0.44,0.49,1,0.47,1.49c-0.24,5.83,0.88,11.62,0.36,17.46
	C549.19,180.21,548.23,181.03,546.31,180.77z"/>
<path class="st0" d="M526.7,127.8c0.53,0.04,1.08,0.1,1.18,0.76c0.1,0.64-0.26,0.99-0.87,0.99c-0.57,0.01-1.05-0.27-1.2-0.83
	C525.61,128.02,526.14,127.87,526.7,127.8z"/>
<path class="st0" d="M701.91,172.35c-0.02-0.43-0.05-0.85-0.07-1.28c0.12-1.55,0.88-2.7,2.22-3.53
	C705.13,172.4,704.75,173.24,701.91,172.35z"/>
<path class="st0" d="M724.89,167.13c0,1.78,0,3.01,0,4.25c0,0.81-0.19,1.51-1.16,1.56c-1.16,0.06-1.33-0.73-1.4-1.67
	C722.21,169.6,723.1,168.51,724.89,167.13z"/>
<path class="st0" d="M800.76,164.23c3.13,0.1,6-0.17,7.43-3.6c0.33-0.78,1.01-0.91,1.79-1.05c3.24-0.58,5.87-1.62,8.67-4.08
	c2.55-2.23,6.77-2.6,8.8-6.43c0.49-0.92,3.48-0.8,5.06,0.18c1.13,0.7,3.25,1.93,0.13,3.09c-0.26,0.1-0.56,0.44-0.6,0.71
	c-0.51,4.14-3.71,4.39-6.84,4.9c-0.89,0.14-2.13,0.66-2.44,1.34c-1.34,3.02-3.85,3.55-6.7,3.81c-1.92,0.18-3.55,0.93-4.78,2.68
	c-1.07,1.54-2.75,2.16-4.75,1.61c-2.12-0.58-4.21,0.01-6.25,0.5c-3.62,0.87-7.28,0.12-10.9,0.47c-1.25,0.12-1.35-0.64-1.42-1.57
	c-0.13-1.55,0.53-2.53,2.09-2.56C793.62,164.18,797.19,164.23,800.76,164.23z"/>
<path class="st0" d="M445.16,260.21c0.06-0.84,0.11-1.68,0.17-2.52c0.57-0.51,1.13-0.51,1.7,0c0.06,0.84,0.11,1.68,0.17,2.52
	C446.52,260.62,445.84,260.63,445.16,260.21z"/>
<path class="st0" d="M350.31,336.04c-1.58-1-1.58-1,0.39-2.96c0.12,0.91,0.22,1.65,0.31,2.38
	C350.78,335.65,350.54,335.85,350.31,336.04z"/>
<path class="st0" d="M156.29,336.08c1,0.82,1.16,2.04,0.05,2.47c-1.48,0.58-1.19-0.87-1.25-1.74
	C155.49,336.57,155.89,336.33,156.29,336.08z"/>
<path class="st0" d="M478.98,230.3c4.23-4.11,8.46-8.22,12.69-12.33c0.18,0.18,0.36,0.36,0.54,0.55
	c-4.17,4.46-8.59,8.67-13.17,12.72C478.74,230.94,478.72,230.63,478.98,230.3z"/>
<path class="st0" d="M478.98,230.3c0.02,0.31,0.04,0.62,0.06,0.93c-1.49,1.73-2.97,3.47-4.46,5.2c-0.3-0.29-0.6-0.59-0.9-0.88
	C475.45,233.8,477.22,232.05,478.98,230.3z"/>
<path class="st0" d="M441.06,219.25c1.31-0.54,3.69,0.54,3.2-2.58c-0.17-1.09,1.82-1.2,2.87-1.53c3.77-1.17,6.31-0.05,7.84,3.29
	c0.32,0.7,0.83,1.36,1.55,1.5c2.33,0.43,4.37,0.93,3.84,4.11c-0.12,0.7,0.73,1.37,1.61,1.01c2.13-0.88,2.96-0.05,3.03,2.06
	c0.05,1.76,1.34,1.79,2.68,1.99c1.32,0.2,2.94,0.52,2.89,2.33c-0.05,1.75-1.44,1.98-2.93,2.17c-7.38,0.94-14.83,0.58-22.18,1.03
	c-5.93,0.37-5.91-5.45-9.84-6.4c0.38-2.32-1.06-4.69-0.37-6.8C436.1,218.77,438.69,218.84,441.06,219.25z"/>
<path class="st0" d="M447.03,257.69c-0.57,0-1.13,0-1.7,0c-0.48-5.4,0.5-10.85-0.61-16.22c-0.07-0.33,0.3-0.75,0.47-1.13
	c1.44-0.74,2-0.4,1.96,1.31C447.05,246.99,447.06,252.34,447.03,257.69z"/>
<path class="st0" d="M54.4,417.76c0,1.55,0,2.7,0,3.85c0,0.89-0.11,1.79-1.27,1.77c-1.37-0.03-1.36-1.11-1.28-2.06
	C51.98,419.9,52.65,418.78,54.4,417.76z"/>
<path class="st0" d="M637.59,250.31c-0.14,1.39,0.57,2.61-0.57,3.46c-0.45,0.34-1.06,0.06-1.21-0.53
	C635.47,251.94,636.01,251.04,637.59,250.31z"/>
<path class="st0" d="M541.99,167.44c-0.08,1.44,0.59,2.64-0.49,3.57c-0.31,0.27-0.92,0.22-1.11-0.22
	C539.81,169.4,540.3,168.37,541.99,167.44z"/>
<path class="st1" d="M94.65,437l-61.9-9.77v-4.72c1.96-13,3.46-14.07,10.19-22.68h0l42.26,1.27l1.44,2.54
	c5.25,9.25,8.01,19.71,8.01,30.34V437z"/>
<path d="M95.78,163.43c2.43-1.15,4.42-2.52,6.22-2.31c2.1,0.24,3.96,2.48,5.94,3.82c0.15,0.11,0.4,0.07,0.61,0.1
	c1.24,0.82,2.48,1.64,3.71,2.47c0.8,0.73,1.55,1.52,2.4,2.18c2.1,1.6,1.8,3.45-0.25,4.9c-1.61,1.13-2.78,2.96-3.96,4.6
	c-0.95,1.32-2.03,2.54-3.53,1.37c-0.61-0.47-0.67-2.28-0.32-3.23c0.84-2.24,2.07-4.34,3.09-6.38c-3,0.46-3.36,3.48-4.69,5.73
	c-0.5,0.85-1.72,1.93-2.48,1.84c-1.77-0.22-1.85-1.59-1.22-3.15c0.84-2.08,1.48-4.24,1.68-6.68c-1.07,2.28-2.14,4.57-3.52,7.49
	c-0.76-0.59-2.06-1.09-2.35-1.93c-0.92-2.66,1.34-6.95,4.36-8.88c-4.19,0.51-4.72,1.22-6.06,8.33c-3.73-0.76-2.52-3.75-2.96-6.12
	L95.78,163.43z M162.24,135.14c2.01-1.83,4.02-7.53,6.52-7.53c0-0.17,29.73,3.73,23.7,3.73c-0.43-0.19-23.31,3.61-23.73,3.43
	c0.02-0.25,0.04-0.5,0.07-0.75c1.88,0,3.76,0,5.64,0l-0.09-0.08c9.61,2.54,19.26,3.5,29.03,0.82c1.02-0.28,2.92-0.15,3.26,0.45
	c0.6,1.05,0.8,2.84,0.29,3.91c-1.35,2.85-2.96,5.63-4.83,8.18c-4.83,6.57-10.47,8.35-18.08,6.51c-2.24-0.54-4.72-0.08-7.24-0.08
	l-4.03,1.65c-1.7-0.12-3.57,0.29-5.62,1.2c-1.22,0.54-2.65,0.6-4.22,0.92c-0.86-7.62-3.62-13.98-11.73-17.58
	c2.65-0.98,4.75-1.76,7.15-2.66L162.24,135.14z M159.18,136.93c-3.93-3.52-6.19-8.38-11.29-10.77c-1.71-0.8-2.59-2.98-4.02-4.57
	l-4.57-3.51c-39.17-12.53-77.81-24.89-115.78-37.04c7.65,10.6,15.78,21.3,23.3,32.41c9.4,13.89,20.1,26.53,33.35,36.88
	c4.39,3.43,9.04,6.55,13.59,9.83c-0.87,0.96-2.5,1.9-3.35,2.83c-1.2,0.84-1.6,1.68-3.02,2.67c-7.52-4.73-14.14-10.75-20.37-17.26
	c-13.05-13.61-22.84-29.6-33.22-45.18c-4.68-7.02-10.18-13.51-15.4-20.16c-3.6-4.59-8.26-7.81-13.75-9.8c0-0.64,0-1.27,0-1.91
	c4.73-0.66,8.18,2.04,11.78,4.42c1.47,0.97,2.97,2.05,4.61,2.58c33.58,10.84,67.17,21.61,100.77,32.37
	c6.75,2.16,13.51,4.25,20.24,6.37l11.96,11.47c2.12,2.4,3.87,4.5,6.59,5.78l16.51,20.53c13.69,15.64,27.47,31.2,41.04,46.95
	c2.93,3.4,6.15,5.89,10.41,7.26c1.94,0.62,3.69,1.88,5.52,2.85c-0.43-0.87-1.15-1.85-2.11-2.37c-4.38-2.37-9.48-3.37-12.67-7.9
	c-2.62-3.73-5.91-6.98-9.36-10.98c3.85,0.38,6.96,0.34,9.91,1.03c11.47,2.66,22.78,3.07,33.99-1.24c5.45-2.1,5.47-2.01,3.68-7.28
	c-0.27-0.8-0.46-1.63-0.76-2.41c-0.78-1.97-1.79-2.68-4.12-1.72c-5.55,2.27-11.2,4.32-16.91,6.14c-3.59,1.14-7.27,1.75-11.13,0.4
	c-1.97-0.69-4.29-0.37-6.45-0.51c0,0.23,0,0.47,0,0.7c4.06,1.06,8.11,2.12,12.17,3.17c-0.04,0.3-0.09,0.59-0.13,0.89
	c-0.67,0.22-1.33,0.64-2,0.63c-5.05-0.11-10.13-0.66-15.16-0.36c-4.98,0.3-6.4-3.52-9.05-6.11c2.7-1.34,5.13-2.54,7.56-3.75
	c-0.08-0.16-0.16-0.33-0.24-0.49c-2.72,1.02-5.43,2.04-8.29,3.12c-2.15-2.46-4.22-4.83-6.54-7.48c9.02-0.96,15.31-5.67,20.24-13.17
	c-0.22,2.12-0.64,3.68-0.46,5.18c0.13,1.07,0.85,2.47,1.72,2.9c0.64,0.32,2.36-0.38,2.89-1.12c7.25-10.27,12.63-21.03,7.6-34.04
	c-0.59-1.52-1.13-3.4-2.31-4.3c-4.96-3.78-9.87-7.78-15.34-10.67c-4.83-2.55-10.39-3.72-15.62-5.5c-0.85-0.21-1.71-0.43-2.56-0.64
	c4.04-1.69,8.03-3.5,12.14-5c1.28-0.47,3-0.48,4.28-0.04c2.16,0.74,4.13,2.02,6.18,3.08c0.11-0.2,0.23-0.41,0.34-0.61
	c-2.53-1.65-5.06-3.3-7.97-5.19c1.15-0.86,2.2-2.33,3.2-2.29c6.28,0.25,7.5,5.66,9.79,10.07c-1.27-4.6-2.75-9.05-4.48-13.41
	c-1.16-2.91-2.31-5.61,1.17-7.74c0.24-0.15,0.55-0.6,0.48-0.76c-1.25-3.06-1.75-7.14-4.03-8.91c-4.28-3.32-3.91-8.07-6.52-12.62
	c1.64,0.59,2.35,0.84,3.07,1.1c0-1.22,0-2.32,0-4.37c1.03,1.45,1.47,2.07,1.63,2.3c1.07-0.07,1.93-0.13,2.81-0.18
	c-0.05-0.38-0.17-1.34-0.31-2.41c0.95,0.2,1.6,0.34,2.24,0.47c0-1.15,0-2.05,0-3.88c0.99,1.4,1.42,2,1.86,2.62
	c0.42-0.61,0.77-1.1,1.28-1.84c0.35,0.9,0.66,1.53,0.86,2.2c1.07,3.75,1.34,7.63,1.87,11.43c0.93,6.61,2.61,13.94,10.84,17.22
	c-1.55-3.31-2.25-7.16-4.56-9.24c-3.53-3.18-3.44-7.19-5.3-11.2c1.39,0.37,2.03,0.55,2.66,0.72c-0.11-1.05-0.19-1.92-0.35-3.53
	c1.15,1.04,1.74,1.58,2.29,2.07c0.38-0.46,0.76-0.92,1.53-1.85c0.47,4.71,4.14,8.29,1.95,12.93c-0.15,0.31,0.05,0.83,0.19,1.22
	c2.52,6.74,3.44,14.28,9.46,19.31c0.39,0.32,0.66,0.85,0.84,1.33c3.07,8.01,6.23,16,9.11,24.08c1.11,3.13,1.41,6.54,2.38,9.73
	c1.54,5.04,3.35,9.99,5,14.99c0.23,0.71,0.22,1.5,0.35,2.43c-11.23-4.29-12.56-4.47-15.79-2.09c4.21-1.49,7.84-0.01,11.57,1.72
	c2.9,1.34,4.79,2.72,3.62,6.32c-0.51,1.58-0.6,3.36-0.54,5.03c0.11,2.95-1.73,3.79-4.02,3.6c-1.82-0.15-4.01-0.55-5.26-1.69
	c-2.37-2.17-4.62-4.71-6.11-7.53c-2.66-5.02-4.7-10.37-7.07-15.56c-0.46-1-1.22-1.86-1.85-2.78c-0.22,0.14-0.45,0.28-0.67,0.41
	c2.49,6,4.95,12.02,7.49,18c2.47,5.81,6.32,9.96,13.06,10.5c0.4,0.03,0.96,0.04,1.16,0.29c1.81,2.21,3.69,4.38,5.27,6.74
	c1.22,1.83,1.59,4.49,3.16,5.77c3.3,2.68,4.16,6.25,4.93,9.95c0.96,4.63,1.69,9.3,2.52,13.95c0,5.52,0,11.04,0,16.57
	c-0.99,3.74-1.98,7.48-3.18,12.03c-5.09-7.78-12.29-11.06-19.59-13.15c-0.24-4.97-0.46-9.52-0.71-14.51
	c-2.94,2.78-5.27,5.01-7.64,7.2c-2.82,2.6-4.46,2.92-7.51,0.57c-3.26-2.5-6.2-5.43-9.23-8.22c-1.07-0.98-2.01-2.1-3.46-3.63
	c1.92,6.43,10.63,14.58,16.4,15.6c1.05,0.19,2.55-0.23,3.34-0.94c2.08-1.87,3.88-4.05,5.87-6.19c0,3.79,0,7.42,0,11.23
	c2.74,1.21,5.7,2.53,9.06,4.01c-3.92,3.5-8.32,4.79-12.94,4.84c-15.49,0.15-30.98,0.07-46.47,0.02c-1.79-0.01-3.6-0.65-5.36-0.51
	c-1.51,0.12-3.16,0.65-4.38,1.52c-1.77,1.26-2.73,1.21-3.62-0.84c-1.81-4.19-1.11-6.1,3.07-7.66c1.56-0.59,3.18-1.04,4.77-1.55
	c-0.09-0.26-0.17-0.52-0.26-0.78c-2.88,1.1-6.06,1.74-8.56,3.41c-2.83,1.89-1.62,5.03-0.04,7.07c3.29,4.23,7.02,8.13,10.66,12.08
	c1.14,1.24,2.89,2,3.76,3.37c0.73,1.14,1.12,3.04,0.67,4.23c-0.36,0.96-2.13,1.64-3.39,1.95c-1.83,0.44-3.78,0.37-5.67,0.61
	c-2.07,0.26-3.7-0.17-5.53-1.5c-2.67-1.94-5.88-3.14-8.86-4.66c-0.14,0.29-0.29,0.59-0.43,0.88c2.66,1.48,5.33,2.97,7.99,4.45
	c-3.84,1.81-6.99,4.24-11.11,2.97c-0.84-0.26-2.44,0.72-3.16,1.58c-2.32,2.73-4.92,3.31-7.19,0.98c-0.72-0.74-1.04-2.18-1.01-3.29
	c0.06-2.64,0.44-5.27,0.69-7.9c-0.33-0.03-0.65-0.05-0.98-0.08c0,1.88,0,3.76,0,5.65c-0.38,0.12-0.76,0.25-1.14,0.37
	c-1.76-4.49-3.81-8.89-5.08-13.51c-0.34-1.25,1.7-3.15,2.47-5.08c-1.48,1.31-2.97,2.63-4.47,3.95c-0.38-0.26-0.8-0.38-0.87-0.61
	c-2.26-7.32-5.49-14.6-3.66-22.45c0.71-3.04,2.94-5.73,4.5-8.56c0.15-0.27,0.45-0.65,0.67-0.64c4.73,0.1,6.56-4.19,9.73-6.42
	c2.38-1.68,4.72-3.41,7-5.07c-9.36-2.46-18.79-4.65-28.03-7.45c-9.18-2.77-18.04-6.43-26.32-11.61c0.9-1.3,1.7-2.54,2.59-3.72
	c1.72-2.27,3.77-2.59,6.15-1c16.46,10.97,34.67,17.28,54.08,20.43c14.85,2.41,29.69,4.9,43.26,7.14c-1.34-1.11-3.82-3.16-6.29-5.2
	c-0.1,0.1-0.21,0.2-0.31,0.3c0.94,1.02,1.88,2.03,2.9,3.13c-11.24-2-22.28-3.96-33.82-6.01c3.56-0.68,6.77-1.44,10.03-1.89
	c3.35-0.46,6.74-0.62,10.59-0.95c-1.91-0.42-3.42-0.76-5.06-1.12c0.41-3.17,2.47-2.29,4.26-2.11c1.89,0.19,3.78,0.27,5.67,0.4
	c0.05-0.29,0.1-0.58,0.15-0.86c-1.52-0.17-3.05-0.57-4.54-0.47c-3.14,0.22-4.36-0.98-3.54-4.19c0.96-0.21,1.98-0.43,3.65-0.79
	c-6.71-1.5-10.31-5.54-9.31-8.98c-1.45-1.88-2.64-3.48-3.91-5.02c-0.32-0.38-0.94-0.5-1.33-0.84c-1.01-0.88-2.75-1.77-2.82-2.74
	c-0.2-2.91-2.63-4.12-3.82-6.2c-1.19-2.08-2.56-3.49-4.1-4.31L159.18,136.93z M142.25,115.31c0.5-4.72,0.97-9.13,1.38-12.94
	c1.56,3.9,2.96,8.46,5.14,12.6c2.39,4.52,6.37,7.19,12.04,6.79c-0.42,0.99-0.69,1.64-1,2.38c3.98-1.62,7.3,0.3,10.9,1.23
	c5.14,3.8,5.79,6.34-3.65,2.19c-3.5-1.54-6.98-1.92-10.32-0.57L142.25,115.31z M165.29,231.23c1.86,0.62,3.45,1.15,5.04,1.67
	c2.31,0.76,3.05-0.87,2.23-2.27c-2.68-4.59-5.73-8.97-8.73-13.36c-0.43-0.62-1.38-1.04-2.17-1.24c-3.05-0.74-6.1-1.68-9.2-1.93
	c-4.42-0.35-5.87,1.32-6.16,6.26c3.21-1.76,6.38-3.28,10.18-1.96c2.29,0.79,3.54,1.82,2.46,4.36c-1.26,2.94-2.51,5.89-3.94,9.25
	c4.56-2.7,9.15-4.73,10.51-10.4C168.47,225,166.89,228.02,165.29,231.23z M248.85,131.34c-0.35-7.25-4.79-11.46-11.03-14.28
	c-3.32-1.5-6.47-1.03-10.28,0.71c3.5,0,6.41-0.48,9.07,0.12c3.21,0.72,4.36,3.54,4.71,6.77c-1.22,0.41-2.19,0.73-2.76,0.92
	C241.97,127.49,245.53,129.48,248.85,131.34z M216.94,76.23c0.19,1.18,0.75,2.29,0.41,2.96c-1.47,2.95-0.17,5.51,0.77,8.17
	c1.55,4.37,1.55,4.37,6.49,3.09C221.83,85.89,223.06,79.41,216.94,76.23z M190.11,147.43c-2.79-0.63-5.67-1.22-8.51-1.95
	c-2.84-0.73-5.65-1.6-8.47-2.42c3.57,2,7.26,3.5,11,4.85C186.36,148.72,188.63,149.16,190.11,147.43z"/>
<path class="st2" d="M270.35,268.22c-0.85,3.9-1.67,7.81-2.55,11.7c-0.18,0.82-0.33,2.11-0.84,2.31c-5.77,2.34-3.43,7.91-4.89,11.94
	c-0.21,0.58-0.15,1.26-0.22,1.89c-0.42,3.71-2.26,6.09-5.98,7.22c-5.24,1.59-10.29,3.85-16.01,2.53c-3.89-0.9-5.52-2.25-5.11-5.46
	c0.16-1.27,1.29-2.78,2.42-3.5c2.39-1.53,4.75-2.72,5.45-5.96c0.22-1,2.36-1.57,3.35-2.17c-0.16-0.04-1.04-0.29-2.66-0.75
	c1.09-2.12,1.6-4.76,3.11-5.6c1.49-0.83,3.99,0.16,6.1,0.07c-1.87-0.54-3.73-1.08-5.6-1.62c0.01-0.29,0.02-0.58,0.02-0.87
	c2.07-0.13,4.14-0.26,6.21-0.39c0.03-0.18,0.06-0.36,0.09-0.54c-1.61-0.19-3.27-0.72-4.83-0.5c-6.89,0.95-13.77,2.01-20.62,3.26
	c-2.43,0.44-4.71,1.67-7.13,2.25c-1.37,0.33-2.89,0.06-4.86,0.06c2.21-8.61,5.47-16.62,2.65-25.29c0.9-0.24,1.9-0.6,2.93-0.75
	c3.89-0.57,5.3,0.48,5.57,4.45c0.19,2.73,0.04,5.48,0.69,8.26c0.29-3.43,0.59-6.86,0.9-10.5c3.89,0.4,7.84,0.75,11.78,1.24
	c3.97,0.5,7.53-0.58,11.36-1.67c6.43-1.84,13.14-1.66,18.67,3.31C270.35,264.82,270.35,266.52,270.35,268.22z"/>
<path class="st2" d="M178.6,323.01c-0.38-0.17-0.75-0.5-1.13-0.5c-3.17,0.04-5.27-0.62-4.7-4.68c0.52-3.63,2.32-6.14,5.79-6.23
	c2.61-0.07,5.02-0.09,6.75-2.55c1.67-2.38,3.71-3.58,6.33-0.67c-0.33-1.89-3.98-3.14-1.09-5.12c1.2-0.82,3.12-0.59,4.45-0.79
	c-0.16-0.13-0.88-0.74-1.61-1.35c0.28-0.13,0.55-0.26,0.83-0.4c-0.49-1.31-0.61-3-1.52-3.86c-5.64-5.29-11.47-10.38-17.23-15.55
	c-1.34-1.2-2.67-2.41-4.01-3.61c0.03-0.4,0.05-0.79,0.08-1.19c5.53-1.49,10.99-3.44,16.61-4.37c9.99-1.66,10.04-1.41,15.17,7.26
	c2.64,4.45,4.77,9.32,8,13.27c2.89,3.53,5.16,7.02,5.82,11.52c0.15,1.04,0.41,2.09,0.42,3.13c0.03,2.23,0.85,5.56-0.27,6.49
	c-3.26,2.7-7.13,4.86-11.76,4.68c-1.36-0.05-2.85,0.05-4.09,0.54c-3.01,1.18-5.91,2.63-8.85,3.97
	C187.95,323.01,183.27,323.01,178.6,323.01z"/>
<path d="M166.5,60.5c1,0.22,2,0.46,3.01,0.67c2.59,0.54,4.96,1.34,5.21,4.83c-2.48-0.61-4.92-1.21-7.37-1.81
	c-0.04,0.16-0.09,0.33-0.13,0.49c0.37,0.12,0.74,0.27,1.12,0.35c7.1,1.62,12.63,5.08,16.2,11.83c2.18,4.11,5.53,7.6,8.11,11.8
	c-5.88-3.57-11.76-7.14-17.64-10.7c-0.11,0.12-0.21,0.23-0.32,0.35c0.99,0.8,1.89,1.73,2.97,2.37c8.89,5.29,17.82,10.53,26.73,15.78
	c0.18,0.11,0.36,0.22,0.55,0.32c5.38,2.97,5.64,6.31,0.41,9.57c-3.89,2.42-8.14,4.25-12.18,6.32c0.22-2.83,0.39-5.05,0.55-7.22
	c2.47-0.87,5.46-1.91,8.44-2.95c-0.06-0.34-0.12-0.68-0.17-1.02c-1.39-0.55-2.78-1.11-4.75-1.89c1.07,0.87,1.63,1.33,2.78,2.27
	c-4.55,1.74-8.24,1.88-11.93,0.87c-6.55-1.8-11.49-6.14-16.25-10.7c-2.68-2.57-5.27-5.24-8-7.75c-7.79-7.17-16.63-9.23-26.64-5.24
	c-0.76,0.3-1.52,0.61-2.44,0.99c-0.25-2.7,0.97-4.37,3.23-5.26c5.34-2.11,10.78-3.55,16.58-1.49c0.03-0.35,0.06-0.71,0.09-1.06
	c-3.08-0.44-6.16-0.87-9.93-1.41c5.76-3.56,11.21-6.93,16.67-10.31C163.1,60.5,164.8,60.5,166.5,60.5z"/>
<path d="M125.53,170.19c-1.68-6.55-8.16-5.27-12.13-7.96c-0.2-3.99,3.31-4.62,5.73-5.98c6.08-3.42,12.28-6.62,18.5-9.79
	c5.53-2.82,11.58-1.2,14.52,4.32c1.5,2.81,2.15,6.14,2.69,9.32c0.16,0.94-1.12,2.62-2.16,3.19c-6.57,3.64-13.84,5-21.16,6.14
	C129.55,169.74,127.56,169.94,125.53,170.19z"/>
<path d="M230.34,240.21c-11.01,6.46-21.49,12.59-31.96,18.73c-0.28-0.16-0.55-0.32-0.83-0.48c1.57-4.94-0.97-7.84-4.4-10.55
	c-2.73-2.16-5.09-4.77-8.32-7.85c1.94-0.56,3.12-1.21,4.29-1.2c13.25,0.18,26.5,0.46,39.75,0.72
	C229.04,239.58,229.21,239.72,230.34,240.21z"/>
<path d="M203.67,265.31c1.63-1.76,3.13-3.67,4.93-5.22c1.51-1.3,4.08-3.47,4.93-3c1.74,0.97,3.79,3.51,3.68,5.29
	c-0.38,6.6-1.41,13.17-2.55,19.7c-0.44,2.51-5.13,3.28-6.54,1.15c-2.38-3.61-5.44-7.17-6.41-11.18c-0.8-3.34-1.48-6.66-2.59-9.95
	c-0.24-0.71,2.05-2.5,3.41-3.44c0.9-0.62,2.23-0.61,3.37-0.88c0.11,0.82,0.57,1.83,0.26,2.44c-0.84,1.63-2.01,3.1-3.05,4.63
	C203.31,264.99,203.49,265.15,203.67,265.31z"/>
<path d="M187.04,270.51c0.1-1.79,0.2-3.6,0.29-5.41c-0.32-0.08-0.65-0.17-0.97-0.25c0.58,4.24-1.81,5.75-5.28,6.67
	c-3.35,0.89-6.64,2.07-9.83,3.44c-2.93,1.26-4.84,0.57-6.22-2.21c-0.92-1.87-1.95-3.7-3.36-6.37c4.61-1.46,8.88-3.19,13.33-4.12
	c5.45-1.13,11.06-1.54,16.58-2.34c2.35-0.34,3.82,0.58,4.7,2.7c0.24,0.58,0.62,1.1,0.94,1.66c2.59,4.58,2.35,4.93-2.8,5.24
	C191.82,269.68,189.24,270.21,187.04,270.51z"/>
<path d="M175.82,284.18c-9.46,2.42-15.61-0.81-20.19-7.98c-2.3-3.61-2.49-7.16-0.92-10.78c5.28,1.18,7.42,5.2,9.6,9.29
	c0.65,1.22,1.87,2.2,2.99,3.08C169.92,279.87,172.65,281.82,175.82,284.18z"/>
<path d="M138.06,145.27c2.91-4.82,8.59-6.58,12.5-4.86c8.15,3.56,10.8,10.48,11.38,18.57c0.22,3.02-2.72,2.57-4.69,3.92
	c-0.62-5.61-1.16-10.92-4.91-14.74C148.74,144.49,144.51,141.49,138.06,145.27z"/>
<path d="M112.25,167.51c-1.24-0.82-2.48-1.64-3.71-2.47c-1.94-1.87-3.89-3.74-5.87-5.65c1.31-1.83,1.38-2.15,10.08,0.12
	c-0.35,1.19-0.7,2.38-1.03,3.52c3.94,2.54,9.63,1.5,12.35,6.74c-2.05,1.16-3.91,2.21-5.76,3.26c0.09-0.36,0.18-0.72,0.27-1.08
	C116.47,170.47,114.36,168.99,112.25,167.51z"/>
<path d="M251.42,235.4c5.83-3.56,8.13-2.96,12.5,3.27C260.64,239.69,256.08,238.5,251.42,235.4z"/>
<path d="M195.17,114.66c2.15,0.77,4.3,1.54,6.45,2.31c0,0.36-0.01,0.71-0.01,1.07c-0.32,2.55-2.04,3.57-5.13,2.87
	c-2.24-0.51-4.42-1.43-6.68-1.73c-3.03-0.4-6.11-0.39-9.35-0.56c3.08-4.12,7.36-5.02,12.16-4.61
	C193.46,114.23,194.31,114.45,195.17,114.66z"/>
<path d="M201.61,118.04c0-0.36,0.01-0.71,0.01-1.07c6.86,3.9,13.73,7.79,20.55,11.75c0.52,0.3,0.96,1.2,0.97,1.83
	c0.3,15.45-4.29,29.04-16.18,39.35c-2.63,2.28-6.57,3.06-9.98,4.37c-0.55,0.21-1.67-0.21-2.13-0.71c-2.36-2.55-4.59-5.21-7.11-8.13
	c2.72-0.42,5.04-0.78,7.36-1.14c-8.83,3.09-11.82-3.99-15.84-9.59c2.22,0.35,4.5,0.48,6.63,1.1c8.08,2.34,13.48-1.51,17.85-7.6
	c1.89-2.64,3.41-5.55,5.18-8.47c1.25,2.13,2.5,4.27,3.75,6.41c-2.39-9.08-5.08-17.98-13.55-23.51c1.27-0.91,2.64-1.59,3.57-2.65
	C203.62,118.92,203.68,117.72,201.61,118.04z"/>
<path d="M174.02,112.45c0.61-0.96,1.05-1.64,1.64-2.56c-0.47,0.02-0.75-0.05-0.89,0.05c-3.36,2.74-6.58,5.66-10.08,8.21
	c-5.97,4.36-9.23,3.06-13.93-2.7c-1.44-1.76-2.3-3.98-3.85-6.73c3.36-0.26,6.1-0.47,8.84-0.68c0-0.04,0-0.09-0.01-0.13
	c-2.86,0-5.72,0-8.93,0c-1.84-2.81-0.45-5.36,1.74-8.2c0.51,2.45,0.96,4.6,1.41,6.76c0.32-0.07,0.63-0.13,0.95-0.2
	c-0.79-1.74-2.45-3.63-0.53-4.24c-0.21-0.13-0.96-0.58-1.71-1.04c0.46-0.56,0.93-1.13,1.39-1.69c2.72,0.65,5.44,1.8,8.17,1.83
	c5.12,0.05,10.28-1.01,15.36-0.69c3.12,0.19,6.37,1.7,9.12,3.35c1.66,0.99,0.03,5.07-2.11,5.94
	C178.56,110.57,176.53,111.42,174.02,112.45z"/>
<path d="M173.72,97.83c-3.33,0.77-6.33,2.04-9.32,2.03c-4.27-0.01-8.58-0.8-12.8-1.6c-1.1-0.21-1.97-1.68-2.51-2.17
	c-0.68,1.39-1.69,3.47-2.93,6.03c-1.22-4.09-2.75-7.38-3.05-10.78c-0.29-3.35,0.67-6.8,1.15-10.79c1.7,1.31,2.82,2.17,3.95,3.04
	c0.15-0.12,0.29-0.24,0.44-0.36c-0.79-0.92-1.59-1.83-2.88-3.33c2.22,0,3.96-0.29,5.56,0.05c7.23,1.52,13.01,5.3,17.3,11.37
	C170.14,93.48,171.86,95.48,173.72,97.83z"/>
<path d="M174.44,134.02c-2.2-0.82-4.39-1.64-6.58-2.46c1.56-4.75,11.09-11.31,16.78-11.64c7.9-0.45,17.17,5.02,21.06,12.87
	c-2.86,0.56-5.56,1.51-8.27,1.53c-6.76,0.05-13.51-0.33-20.27-0.51c-0.94-0.03-1.88,0.08-2.82,0.12
	C174.35,133.94,174.44,134.02,174.44,134.02z"/>
<path d="M163.13,121.6c4.76-3.14,9.2-6.11,13.68-9.02c2.86-1.86,5.75-2.4,8.14-0.21c-2.84,2.93-5.68,5.87-8.53,8.8
	c-2.71,2.8-6.33,2.97-9.6,0.75C166.04,121.38,164.66,121.7,163.13,121.6z"/>
<path d="M142.83,96.39c-3.99-4.76-8.76-8.42-7.33-15.47c2.51-0.5,5.11-1.02,7.33-1.47C142.83,85.14,142.83,90.44,142.83,96.39z"/>
<path d="M183.51,110.8c0.46-2.76,0.79-4.69,1.12-6.69c1.84,0.33,3.93,0.32,5.61,1.14c1.1,0.54,2.08,2.24,2.21,3.51
	c0.08,0.82-1.41,2.5-2.31,2.57C187.95,111.53,185.68,111.02,183.51,110.8z"/>
<path d="M146.08,123.53c-25.17,19.92-41.46,32.82-50.22,39.75l-2.91,2.38c-2.84,2.25-5.63,4.45-8.41,6.68
	c-0.4,0.32-1.04,0.76-1.03,1.12c0.22,4.51-3.4,4.68-6.29,5.68c-2.04,0.71-4.1,1.39-7.02,2.37c2.63-3.84,4.73-6.93,6.87-10
	c0.2-0.29,0.66-0.6,0.99-0.59c6.72,0.31,9.86-5.36,14.46-8.58c0.89-0.54,1.85-0.99,2.68-1.63c13.38-10.27,26.75-20.56,40.11-30.87
	c3.46-2.67,6.87-5.39,10.51-8.26L146.08,123.53z"/>
</svg>
