<?xml version="1.0" encoding="UTF-8"?>
<svg id="Layer_1" data-name="Layer 1" xmlns="http://www.w3.org/2000/svg" viewBox="0 0 678.11 667.36">
  <defs>
    <style>
      .cls-1 {
        fill: #d13c66;
      }

      .cls-2 {
        fill: #231f20;
      }
    </style>
  </defs>
  <path class="cls-2" d="m307.27,667.36h-10.31c-22.56,0-45.38-2-68.48-5.98-23.1-3.99-44.29-8.73-63.54-14.24-1.1-.82-2.06-1.51-2.89-2.07-.83-.54-1.24-1.92-1.24-4.13l.53-65.3c0-1.65.41-3.02,1.24-4.13.82-1.1,1.78-1.65,2.89-1.65h33.01c.55,0,1.44.41,2.68,1.24,1.24.82,1.86,2.07,1.86,3.71l14.32,33.12c0,.55,1.24,1.38,3.71,2.47,5.5,3.04,11.76,5.37,18.77,7.01,7.01,1.65,14.37,3.17,22.07,4.54,7.7,1.38,15.33,2.35,22.89,2.89,7.56.56,14.37.82,20.42.82h2.06l38.78-4.13c11.82-2.2,22.96-5.84,33.42-10.93,10.45-5.09,19.45-11.41,27.02-18.98,7.56-7.57,13.61-16.43,18.15-26.61,4.54-10.17,6.81-21.46,6.81-33.83s-2.27-24.61-6.81-35.07c-4.54-10.45-10.8-19.73-18.77-27.85-7.98-8.11-16.99-15.4-27.02-21.86-10.04-6.46-20.98-12.59-32.8-18.36l-38.78-17.74-22.28-9.9c-17.32-7.43-33.9-15.54-49.71-24.34-15.82-8.8-29.5-18.98-41.05-30.53-11.55-11.55-20.84-24.48-27.85-38.78-7.01-14.3-10.52-31.08-10.52-50.33,0-22,4.06-41.74,12.17-59.2,8.11-17.46,19.11-32.8,33-46,13.89-13.2,29.98-23.72,48.27-31.56,18.29-7.84,37.61-13.41,57.97-16.71l38.78-2.89c9.62,0,19.73.62,30.32,1.85,10.59,1.24,21.38,2.82,32.39,4.75,11,1.93,21.72,3.85,32.18,5.77,10.45,1.93,19.94,4.13,28.47,6.6,1.1.55,2.06,1.1,2.89,1.65.83.56,1.24,1.93,1.24,4.13v121.7c0,1.65-.41,3.03-1.24,4.13-.82,1.1-1.79,1.65-2.89,1.65h-32.18c-.55,0-1.38-.41-2.47-1.24-1.1-.83-1.65-2.07-1.65-3.71l-16.91-90.36-.83-.41c-.56-.26-1.38-.41-2.47-.41-7.98-4.13-18.02-7.56-30.12-10.31-12.1-2.75-24.34-4.68-36.71-5.78l-38.78,2.48c-10.73,2.21-20.91,5.57-30.53,10.1-9.63,4.54-18.09,10.32-25.37,17.33-7.29,7.01-13.07,15.2-17.33,24.55-4.26,9.35-6.39,19.67-6.39,30.94s1.99,21.52,5.98,30.74c3.99,9.21,9.49,17.6,16.5,25.16,7.01,7.57,15.33,14.44,24.96,20.63,9.63,6.18,20.35,12.17,32.18,17.94l38.78,16.91,30.94,13.62c18.15,7.71,35.27,16.23,51.36,25.58,16.09,9.35,29.91,19.8,41.46,31.35s20.56,24.75,27.02,39.6c6.46,14.85,9.7,32.18,9.7,51.98,0,24.21-4.27,45.73-12.79,64.57-8.53,18.84-19.94,35.21-34.24,49.09-14.31,13.89-31.15,25.03-50.54,33.42-19.39,8.39-40.37,14.23-62.91,17.53l-38.78,3.71Z"/>
  <path class="cls-2" d="m291.99,403.55l-1.85-399.02c-.02-4.67,6.2-6.28,8.45-2.19l14.26,25.93c22.71,41.3,37.53,86.46,43.72,133.18l3.29,24.83c3.09,23.34,4.69,46.86,4.79,70.41l.76,181.63"/>
  <path class="cls-2" d="m339.71,403.5l-273.69,179.93c-13.93,9.16-31.68,6.79-39.85-5.31L0,539.34l50.23.42,19.58-46.35,263.34-173.28"/>
  <path class="cls-2" d="m265.67,392.81l355.36,177.15c13.07,6.51,28.94,1.32,35.64-11.65l21.45-41.59-45.27,8.65-20.23-41.34-328.42-163.9"/>
  <rect class="cls-1" x="220.61" y="410.93" width="53.4" height="16.73" transform="translate(468.82 -14.18) rotate(57.6)"/>
  <rect class="cls-1" x="195.87" y="426.63" width="53.4" height="16.73" transform="translate(470.59 14) rotate(57.6)"/>
  <rect class="cls-1" x="245.38" y="395.21" width="53.4" height="16.73" transform="translate(467.04 -42.4) rotate(57.6)"/>
  <rect class="cls-1" x="377.91" y="404.91" width="53.4" height="16.73" transform="translate(954.88 235.18) rotate(116.46)"/>
  <rect class="cls-1" x="404.15" y="417.97" width="53.4" height="16.73" transform="translate(1004.49 230.57) rotate(116.46)"/>
  <rect class="cls-1" x="351.65" y="391.84" width="53.4" height="16.73" transform="translate(905.2 239.8) rotate(116.46)"/>
</svg>