<?xml version="1.0" encoding="UTF-8"?>
<svg id="Layer_1" data-name="Layer 1" xmlns="http://www.w3.org/2000/svg" viewBox="0 0 2611.59 754.11">
  <defs>
    <style>
      .cls-1 {
        stroke: #231f20;
        stroke-miterlimit: 10;
      }

      .cls-1, .cls-2 {
        fill: #231f20;
      }
    </style>
  </defs>
  <rect class="cls-2" x="310.4" y="353.52" width="81.1" height="51.51"/>
  <path class="cls-2" d="m363.62,447.59L60.02,647.19c-15.45,10.16-35.14,7.53-44.2-5.89l-10.09-14.95c-10.43-15.45-6.22-36.44,9.35-46.69l49.14-32.34,262.75-172.89"/>
  <path class="cls-2" d="m386.39,489.11l292.91,151.87c14.5,7.23,32.11,1.47,39.53-12.93l14.64-28.38c5.04-9.77,1.12-21.77-8.72-26.68l-54.78-27.34-247.06-130.6"/>
  <path class="cls-2" d="m327.84,753.61h-11.44c-25.02,0-50.34-2.22-75.97-6.63-25.63-4.43-49.13-9.68-70.48-15.79-1.22-.91-2.29-1.67-3.2-2.29-.92-.6-1.37-2.13-1.37-4.58l.59-72.44c0-1.83.46-3.35,1.37-4.58.91-1.22,1.98-1.83,3.2-1.83h36.61c.61,0,1.6.46,2.97,1.37,1.37.91,2.06,2.29,2.06,4.12l15.89,36.74c0,.61,1.37,1.53,4.12,2.74,6.1,3.37,13.04,5.95,20.82,7.78,7.78,1.84,15.94,3.52,24.49,5.03,8.54,1.53,17,2.6,25.4,3.21,8.39.62,15.94.91,22.66.91h2.29l43.02-4.58c13.11-2.44,25.47-6.48,37.07-12.12,11.59-5.64,21.58-12.66,29.98-21.05,8.39-8.39,15.1-18.23,20.13-29.52,5.03-11.28,7.55-23.8,7.55-37.53s-2.52-27.3-7.55-38.9c-5.03-11.59-11.98-21.88-20.82-30.89-8.85-9-18.84-17.08-29.98-24.25-11.14-7.17-23.27-13.96-36.38-20.37l-43.02-19.68-24.71-10.98c-19.22-8.24-37.6-17.24-55.14-27-17.55-9.76-32.72-21.05-45.54-33.87-12.81-12.81-23.11-27.15-30.89-43.02-7.78-15.86-11.67-34.48-11.67-55.83,0-24.41,4.5-46.3,13.5-65.67,8.99-19.37,21.2-36.39,36.61-51.03,15.4-14.64,33.25-26.31,53.55-35.01,20.29-8.7,41.72-14.88,64.3-18.53l43.02-3.21c10.67,0,21.89.69,33.63,2.06,11.74,1.38,23.72,3.13,35.93,5.27,12.2,2.14,24.1,4.27,35.69,6.4,11.59,2.14,22.12,4.58,31.58,7.32,1.22.61,2.29,1.22,3.2,1.83.92.62,1.37,2.14,1.37,4.58v135c0,1.84-.46,3.36-1.37,4.58-.91,1.22-1.99,1.84-3.2,1.84h-35.7c-.61,0-1.53-.46-2.74-1.37-1.22-.92-1.83-2.29-1.83-4.12l-18.76-100.23-.92-.46c-.62-.29-1.53-.46-2.74-.46-8.85-4.58-19.99-8.39-33.41-11.44-13.43-3.05-27-5.19-40.73-6.41l-43.02,2.75c-11.9,2.45-23.19,6.17-33.87,11.21-10.68,5.04-20.07,11.44-28.14,19.23-8.09,7.78-14.49,16.86-19.22,27.23-4.73,10.38-7.09,21.82-7.09,34.32s2.21,23.87,6.64,34.1c4.42,10.22,10.53,19.53,18.31,27.91,7.78,8.39,17,16.02,27.68,22.89,10.68,6.86,22.58,13.5,35.7,19.9l43.02,18.76,34.32,15.11c20.13,8.55,39.13,18,56.97,28.38,17.85,10.38,33.18,21.97,45.99,34.78,12.81,12.81,22.8,27.46,29.98,43.93,7.17,16.47,10.75,35.69,10.75,57.66,0,26.85-4.73,50.73-14.19,71.62-9.46,20.9-22.12,39.05-37.98,54.45-15.87,15.41-34.55,27.77-56.06,37.07-21.51,9.31-44.78,15.78-69.79,19.45l-43.02,4.12Z"/>
  <path class="cls-2" d="m310.4,359.22l-1.76-354.19c-.02-5.18,6.88-6.97,9.37-2.43l15.82,28.77c25.19,45.81,41.64,95.91,48.5,147.74l3.65,27.54c3.43,25.9,5.2,51.98,5.31,78.1v96.53"/>
  <g>
    <path class="cls-1" d="m868.37,472.47l-15.38-3.94-3.15-3.94v-48.89c46.79-34.7,92.27-52.05,136.43-52.05,30.22,0,55.33,5.65,75.31,16.95,19.97,11.31,34.43,25.43,43.37,42.39,8.93,16.95,13.41,36.74,13.41,59.34l-1.97,79.25v117.5c0,16.04,1.11,25.76,3.35,29.18,2.23,3.42,4.79,5.72,7.69,6.9,2.89,1.18,8.28,2.17,16.17,2.96l22.47,1.97,3.15,3.55v15.77l-3.15,3.15c-19.19-1.58-37.06-2.37-53.62-2.37s-34.7.79-56.78,2.37l-5.91-5.52,1.58-63.48-85.96,67.03c-14.46,6.04-30.23,9.07-47.32,9.07-21.03,0-39.1-3.81-54.21-11.44-15.12-7.62-26.68-18.27-34.7-31.94-8.02-13.67-12.03-30.23-12.03-49.68,0-38.64,12.09-68.81,36.27-90.49,24.18-21.69,90.16-40.15,197.94-55.4,0-38.9-8.67-66.3-26.02-82.21-17.35-15.9-40.61-23.85-69.79-23.85-15.25,0-29.12,2.24-41.6,6.7-12.49,4.47-19.65,8.08-21.49,10.84-1.84,2.76-8.94,18.86-21.29,48.3l-2.76,1.97Zm182.95,62.3c-73.6,12.36-119.47,25.63-137.61,39.82-18.14,14.19-27.21,36.15-27.21,65.85,0,41.01,20.37,61.51,61.12,61.51,34.96,0,69.53-20.24,103.7-60.72v-106.46Z"/>
    <path class="cls-1" d="m1497.51,155.85l7.49,4.73c-2.89,30.23-4.34,90.82-4.34,181.77v247.22c0,5.79.52,24.38,1.58,55.79,1.05,31.41,2.17,49.75,3.35,55,1.18,5.26,2.96,9.07,5.32,11.44,2.36,2.37,5.25,3.88,8.67,4.53,3.41.66,17.61,1.77,42.58,3.35l3.55,3.15v16.56l-3.15,3.55c-32.86-2.11-64.54-3.15-95.03-3.15s-61.78,1.05-94.63,3.15l-3.55-3.55v-16.56l3.55-3.15c25.49-1.58,39.89-2.76,43.18-3.55,3.28-.79,6.17-2.43,8.67-4.93,2.49-2.49,4.2-6.31,5.13-11.43.92-5.13,1.97-22.08,3.15-50.86,1.18-28.78,1.77-50.53,1.77-65.26v-204.25l-1.58-83.59c-.79-29.18-1.65-49.42-2.56-60.72-.92-11.3-2.17-18-3.75-20.11-1.58-2.1-4.34-3.68-8.28-4.73-3.94-1.05-19.85-1.58-47.71-1.58l-3.55-3.55v-16.56l3.16-3.55c50.2-5.78,92.52-15.51,126.96-29.18Z"/>
    <path class="cls-1" d="m2095.11,681.85l-12.62,28.39c-27.34,17.61-51.72,29.05-73.14,34.3-21.43,5.25-40.55,7.89-57.37,7.89-31.54,0-61.45-6.18-89.7-18.53-28.26-12.35-51.26-33.25-69-62.69-17.74-29.44-26.62-64.92-26.62-106.46,0-27.6,3.41-52.5,10.25-74.72,6.83-22.21,14-38.7,21.49-49.48,7.49-10.77,20.17-22.73,38.05-35.88,17.87-13.14,36.8-23.66,56.78-31.54,19.97-7.89,41.53-11.83,64.67-11.83,31.54,0,59.34,7.43,83.4,22.28,24.05,14.85,40.94,33.85,50.67,56.97,9.72,23.13,14.59,47.71,14.59,73.73,0,8.15-.39,16.04-1.18,23.66l-4.34,4.34c-17.88,3.94-41.93,6.57-72.16,7.89-30.23,1.32-50.21,1.97-59.93,1.97h-126.57c.52,54.41,14.2,94.5,41.01,120.26,26.81,25.76,59.67,38.64,98.57,38.64,18.4,0,36.08-3.15,53.03-9.46,16.96-6.31,34.9-15.11,53.82-26.42l6.31,6.7Zm-252.75-161.27c4.73.79,22.93,1.71,54.61,2.76,31.67,1.05,55.13,1.58,70.38,1.58,36.53,0,58.75-.65,66.64-1.97.26-6.31.39-11.17.39-14.59,0-40.74-8.28-71.03-24.84-90.89-16.56-19.85-39.17-29.77-67.82-29.77-31.29,0-55.66,11.17-73.14,33.51-17.48,22.35-26.22,55.47-26.22,99.36Z"/>
    <path class="cls-1" d="m2334.69,623.88h16.95l3.55,3.55c.52,22.08,1.84,41.01,3.94,56.78,8.14,12.36,22.21,22.41,42.19,30.16,19.97,7.76,39.69,11.63,59.14,11.63,27.86,0,50.14-7.49,66.84-22.47,16.69-14.98,25.04-32.86,25.04-53.62,0-11.3-3.02-21.1-9.07-29.38-6.05-8.28-15.18-15.11-27.4-20.5-12.22-5.39-34.11-11.76-65.65-19.12-27.08-6.31-46-11.24-56.78-14.79-10.78-3.55-21.16-9.52-31.15-17.94-9.99-8.41-17.61-18.73-22.87-30.95-5.26-12.22-7.89-25.69-7.89-40.41,0-35.22,14-63.42,41.99-84.58,27.99-21.16,62.89-31.74,104.69-31.74,17.61,0,36.8,2.44,57.57,7.3,20.76,4.87,36.53,9.53,47.32,14l3.55,5.52c-2.11,10.52-3.42,38.12-3.94,82.8l-3.55,3.55h-15.77l-3.55-3.55c-1.05-16.03-2.5-27.27-4.34-33.71-1.84-6.44-6.58-13.41-14.2-20.9-7.63-7.49-18.4-13.8-32.33-18.93-13.93-5.13-28.65-7.69-44.16-7.69s-29.51,2.37-40.42,7.1c-10.91,4.73-19.71,11.9-26.42,21.49-6.7,9.6-10.06,21.23-10.06,34.89,0,9.99,2.03,18.93,6.11,26.81,4.07,7.89,10.31,14.26,18.73,19.12,8.41,4.87,17.21,8.35,26.42,10.45l42.98,11.04c36.8,8.94,63.15,16.7,79.06,23.26,15.9,6.57,28.19,16.5,36.87,29.77,8.68,13.28,13.01,29.37,13.01,48.3,0,36.27-14.98,67.43-44.95,93.45-29.97,26.02-68.48,39.03-115.53,39.03-16.56,0-37.13-1.84-61.71-5.52-24.58-3.68-45.54-7.76-62.89-12.22l-1.97-5.13,3.94-26.42c1.31-8.15,2.1-16.36,2.37-24.64.26-8.28.52-25.69.79-52.24l3.55-3.55Z"/>
  </g>
</svg>